<svg width="33" height="32" viewBox="0 0 33 32" fill="none" xmlns="http://www.w3.org/2000/svg">
<path d="M7.4707 15H27.4707C27.7359 15 27.9903 15.1054 28.1778 15.2929C28.3653 15.4804 28.4707 15.7348 28.4707 16C28.4707 16.2652 28.3653 16.5196 28.1778 16.7071C27.9903 16.8946 27.7359 17 27.4707 17H7.4707C7.20549 17 6.95113 16.8946 6.7636 16.7071C6.57606 16.5196 6.4707 16.2652 6.4707 16C6.4707 15.7348 6.57606 15.4804 6.7636 15.2929C6.95113 15.1054 7.20549 15 7.4707 15Z" fill="#F4A658"/>
<path d="M7.88454 16.0013L16.1785 24.2933C16.3663 24.481 16.4718 24.7357 16.4718 25.0013C16.4718 25.2668 16.3663 25.5215 16.1785 25.7093C15.9908 25.897 15.7361 26.0025 15.4705 26.0025C15.205 26.0025 14.9503 25.897 14.7625 25.7093L5.76254 16.7093C5.66941 16.6164 5.59553 16.506 5.54511 16.3845C5.4947 16.263 5.46875 16.1328 5.46875 16.0013C5.46875 15.8697 5.4947 15.7395 5.54511 15.618C5.59553 15.4965 5.66941 15.3862 5.76254 15.2933L14.7625 6.29326C14.9503 6.10549 15.205 6 15.4705 6C15.7361 6 15.9908 6.10549 16.1785 6.29326C16.3663 6.48104 16.4718 6.73571 16.4718 7.00126C16.4718 7.26681 16.3663 7.52149 16.1785 7.70926L7.88454 16.0013Z" fill="#F4A658"/>
</svg>
