<svg width="24" height="24" viewBox="0 0 24 24" fill="none" xmlns="http://www.w3.org/2000/svg">
<path d="M17.0492 20.2878C16.0692 21.2378 14.9992 21.0878 13.9692 20.6378C12.8792 20.1778 11.8792 20.1578 10.7292 20.6378C9.28919 21.2578 8.52919 21.0778 7.66919 20.2878C2.78919 15.2578 3.50919 7.59781 9.04919 7.31781C10.3992 7.38781 11.3392 8.05781 12.1292 8.11781C13.3092 7.87781 14.4392 7.18781 15.6992 7.27781C17.2092 7.39781 18.3492 7.99781 19.0992 9.07781C15.9792 10.9478 16.7192 15.0578 19.5792 16.2078C19.0092 17.7078 18.2692 19.1978 17.0392 20.2978L17.0492 20.2878ZM12.0292 7.25781C11.8792 5.02781 13.6892 3.18781 15.7692 3.00781C16.0592 5.58781 13.4292 7.50781 12.0292 7.25781Z" fill="black"/>
</svg>
