<svg width="24" height="24" viewBox="0 0 24 24" fill="none" xmlns="http://www.w3.org/2000/svg">
<path d="M9.54866 20.7536C10.4881 20.7536 11.2497 19.992 11.2497 19.0526C11.2497 18.1131 10.4881 17.3516 9.54866 17.3516C8.60922 17.3516 7.84766 18.1131 7.84766 19.0526C7.84766 19.992 8.60922 20.7536 9.54866 20.7536Z" stroke="white" stroke-width="1.5" stroke-linecap="round" stroke-linejoin="round"/>
<path d="M16.9608 20.7536C17.9002 20.7536 18.6618 19.992 18.6618 19.0526C18.6618 18.1131 17.9002 17.3516 16.9608 17.3516C16.0213 17.3516 15.2598 18.1131 15.2598 19.0526C15.2598 19.992 16.0213 20.7536 16.9608 20.7536Z" stroke="white" stroke-width="1.5" stroke-linecap="round" stroke-linejoin="round"/>
<path d="M5.606 5.555L7.616 11.919C7.925 12.897 8.079 13.386 8.376 13.748C8.636 14.068 8.975 14.315 9.358 14.468C9.793 14.641 10.305 14.641 11.331 14.641H15.186C16.212 14.641 16.724 14.641 17.158 14.468C17.542 14.315 17.88 14.068 18.141 13.748C18.437 13.386 18.591 12.897 18.901 11.919L19.31 10.623L19.55 9.857L19.881 8.807C19.9991 8.4325 20.0274 8.03544 19.9634 7.648C19.8995 7.26055 19.7452 6.89361 19.513 6.57691C19.2809 6.26021 18.9774 6.00266 18.6271 5.82511C18.2768 5.64757 17.8897 5.55503 17.497 5.555H5.606ZM5.606 5.555L5.595 5.518C5.55277 5.37656 5.50608 5.23649 5.455 5.098C5.25255 4.58554 4.90923 4.14082 4.46473 3.81523C4.02022 3.48963 3.49266 3.29645 2.943 3.258C2.84 3.25 2.727 3.25 2.5 3.25" stroke="white" stroke-width="1.5" stroke-linecap="round" stroke-linejoin="round"/>
</svg>
