<svg width="33" height="32" viewBox="0 0 33 32" fill="none" xmlns="http://www.w3.org/2000/svg">
<path d="M25.4707 15H5.4707C5.20549 15 4.95113 15.1054 4.7636 15.2929C4.57606 15.4804 4.4707 15.7348 4.4707 16C4.4707 16.2652 4.57606 16.5196 4.7636 16.7071C4.95113 16.8946 5.20549 17 5.4707 17H25.4707C25.7359 17 25.9903 16.8946 26.1778 16.7071C26.3653 16.5196 26.4707 16.2652 26.4707 16C26.4707 15.7348 26.3653 15.4804 26.1778 15.2929C25.9903 15.1054 25.7359 15 25.4707 15Z" fill="#F4A658"/>
<path d="M25.0569 16.0013L16.7629 24.2933C16.5751 24.481 16.4696 24.7357 16.4696 25.0013C16.4696 25.2668 16.5751 25.5215 16.7629 25.7093C16.9506 25.897 17.2053 26.0025 17.4709 26.0025C17.7364 26.0025 17.9911 25.897 18.1789 25.7093L27.1789 16.7093C27.272 16.6164 27.3459 16.506 27.3963 16.3845C27.4467 16.263 27.4727 16.1328 27.4727 16.0013C27.4727 15.8697 27.4467 15.7395 27.3963 15.618C27.3459 15.4965 27.272 15.3862 27.1789 15.2933L18.1789 6.29326C17.9911 6.10549 17.7364 6 17.4709 6C17.2053 6 16.9506 6.10549 16.7629 6.29326C16.5751 6.48104 16.4696 6.73571 16.4696 7.00126C16.4696 7.26681 16.5751 7.52149 16.7629 7.70926L25.0569 16.0013Z" fill="#F4A658"/>
</svg>
