<svg width="29" height="32" viewBox="0 0 29 32" fill="none" xmlns="http://www.w3.org/2000/svg">
<path d="M26.7962 25.1859C25.4539 26.8934 22.5606 29.135 15.3011 29.4765C8.00127 29.8198 5.33389 28.1574 3.75176 26.9514C2.28904 25.8361 1.988 23.9429 2.06424 22.761C3.58559 21.6642 10.7543 21.2862 14.9067 21.0908C18.5132 20.9212 25.6116 20.9536 27.8492 21.548C27.8511 22.7602 27.9204 23.7558 26.7962 25.1859Z" fill="url(#paint0_radial_6944_16654)"/>
<path opacity="0.5" d="M14.9067 21.091C10.7543 21.2863 3.58556 21.6644 2.06421 22.7612C2.01432 23.5347 2.12964 24.6127 2.62459 25.5776C2.75761 25.5947 2.88693 25.6505 2.99371 25.7334C3.00946 25.7448 3.02283 25.7591 3.03783 25.7718C3.15361 25.6749 3.33653 25.636 3.4928 25.7494C3.66531 25.8737 3.77619 26.0439 3.86822 26.2226C4.00834 26.1489 4.19795 26.152 4.30999 26.3075C4.31709 26.3193 4.32581 26.3294 4.33361 26.3411C4.34716 26.34 4.36086 26.3388 4.3745 26.338C4.3941 26.3064 4.41335 26.2753 4.43211 26.2422C4.55801 26.0216 4.94539 26.0363 5.03958 26.2656C5.04972 26.2611 5.06 26.2567 5.06958 26.254C5.07418 26.2526 5.07699 26.2521 5.08099 26.2509C5.08614 26.2478 5.08952 26.2455 5.09538 26.2422C5.14829 26.2114 5.2291 26.1886 5.29161 26.1861C5.66402 26.1686 5.75699 26.4357 5.94409 26.6315C6.04485 26.6127 6.15176 26.6301 6.22861 26.6947C6.28194 26.621 6.36615 26.5697 6.48264 26.5642C6.66405 26.5556 6.82546 26.6836 6.83175 26.8456C6.83237 26.8612 6.8314 26.8781 6.83144 26.8938C6.92684 26.9072 7.02116 26.929 7.11432 26.9486C7.12084 26.9496 7.12753 26.9513 7.13423 26.9529C7.183 26.8417 7.30176 26.7794 7.42461 26.7692C7.59771 26.5975 7.95212 26.6623 8.00833 26.8724C8.10629 26.8987 8.19405 26.9625 8.23949 27.0575C8.25748 27.0955 8.29772 27.1183 8.34122 27.1244C8.3412 27.0708 8.34673 27.0165 8.35984 26.9627C8.45142 26.5871 9.10507 26.7136 9.01303 27.0904C9.00874 27.1084 9.00578 27.1156 9.00367 27.1186C9.0044 27.1233 9.00506 27.1293 9.00583 27.138C9.00695 27.1505 9.00689 27.1576 9.00664 27.1625C9.00867 27.1668 9.01086 27.1717 9.01422 27.1797C9.01874 27.1905 9.02096 27.197 9.02241 27.2015C9.02553 27.205 9.02942 27.2096 9.03535 27.2168C9.03964 27.2223 9.0426 27.2259 9.04528 27.2296C9.05649 27.237 9.10209 27.2638 9.09114 27.2607C9.0965 27.2629 9.10015 27.2649 9.1025 27.2655C9.11333 27.2669 9.12671 27.2685 9.13664 27.2696C9.20128 27.048 9.61932 26.9724 9.77266 27.2181C10.2251 27.1513 10.6606 27.2516 11.0913 27.3937C11.2073 27.3787 11.3287 27.4142 11.3981 27.5012C11.4161 27.5074 11.4339 27.5139 11.4518 27.5203C11.4657 27.5197 11.4796 27.519 11.4933 27.5182C11.6297 27.3595 11.9089 27.4073 12.0222 27.5536C12.0375 27.5766 12.0556 27.593 12.0749 27.6073C12.1125 27.5576 12.1682 27.5173 12.2445 27.4954C12.8729 27.3164 13.8636 27.0681 14.4755 27.3996C14.7251 27.5349 14.9152 27.6471 15.1971 27.4723C15.3032 27.4063 15.4201 27.3216 15.546 27.2857C15.8744 27.1913 16.1125 27.242 16.4204 27.3534C16.9567 27.5475 17.8375 26.8006 18.4416 26.7466C18.8797 26.7069 19.1779 26.8439 19.3376 27.1282C19.7185 27.0277 20.0728 26.7447 20.4625 26.8213C20.5683 26.8416 20.9699 26.6811 21.0622 26.5324C21.1433 26.402 21.3624 26.3123 21.5154 26.4045C21.7813 26.5633 22.1516 26.5161 22.4708 26.4113C22.4412 26.2193 22.599 26.014 22.8635 26.0723C23.196 26.1457 23.5604 26.1086 23.7795 26.2573C23.8129 26.0985 23.7264 25.8364 23.7782 25.749C23.8632 25.6058 24.0518 25.5059 24.2241 25.4687C24.6187 25.3842 25.2224 25.2679 25.6042 25.4437C25.6706 25.4747 25.7383 25.5384 25.7794 25.5936C25.7852 25.6018 25.7894 25.6088 25.794 25.6163C25.8009 25.5631 25.8239 25.4885 25.8813 25.3906C26.0205 25.1514 26.1554 25.0289 26.4271 24.9071C26.7653 24.7552 26.6871 24.4838 26.9164 24.2601C27.0372 24.1422 27.2716 24.0858 27.4979 24.0412C27.8827 23.1635 27.8504 22.41 27.8491 21.5479C25.6115 20.9538 18.513 20.9213 14.9067 21.091Z" fill="#C66F27"/>
<path d="M27.8353 21.6059C27.928 23.5828 22.2314 25.4576 15.111 25.7921C7.9909 26.1272 2.14337 24.7957 2.05027 22.8187C1.95739 20.8412 7.65405 18.9668 14.7745 18.6319C21.8947 18.2972 27.742 19.6288 27.8353 21.6059Z" fill="#FACE76"/>
<path d="M15.1062 25.6961C14.8181 25.7096 14.4952 25.4093 14.2684 25.5623C13.8561 25.8401 12.8778 25.7371 12.5687 25.5924C12.1563 25.3997 11.7104 25.7447 11.2609 25.7299C10.8611 25.7165 10.6201 25.5375 10.2376 25.5123C9.97565 25.4957 9.56714 25.6363 9.31409 25.6137C8.98467 25.5849 8.60555 25.3454 8.29228 25.307C8.06109 25.2793 7.892 25.4549 7.67061 25.4214C7.43733 25.3864 7.24162 25.4074 7.01961 25.3669C6.799 25.3269 6.55189 25.2258 6.34274 25.18C6.09415 25.1258 5.6695 24.8767 5.43805 24.8144C4.84074 24.6544 4.4871 24.6596 4.01846 24.4469C3.7698 24.3343 3.62246 23.7987 3.352 24.0002C3.01428 24.2519 2.67542 23.6258 2.4462 23.3616C2.27238 23.1613 2.13763 22.9482 2.04576 22.7223C2.00489 22.8479 2.07494 23.3484 2.08096 23.4752C2.09266 23.7225 2.19405 23.9595 2.37698 24.1844C2.45689 24.2831 2.5934 24.1207 2.63121 24.2526C2.68465 24.4387 3.17373 24.6045 3.25869 24.878C3.30836 25.0385 3.6896 24.8684 3.77519 25.1347C3.85481 25.3822 4.29879 25.5174 4.60886 25.6199C4.89734 25.7151 5.0765 25.3497 5.40577 25.4332C5.70287 25.5089 6.24683 25.7117 6.45135 25.9297C6.74178 26.006 7.37358 25.8772 7.67962 26.1449C8.03642 26.1975 8.2461 25.9796 8.48746 26.0078C8.78596 26.042 9.18245 26.3284 9.49515 26.3559C9.92359 26.3935 10.0952 26.5283 10.5273 26.5534C10.807 26.5693 11.3719 26.6721 11.3748 26.2552C11.6812 26.266 11.8212 26.711 12.6117 26.4995C12.8711 26.4302 13.3572 26.0661 13.4467 26.2968C13.5868 26.6578 14.3434 26.801 14.7527 26.466C14.8487 26.3883 15.2652 26.3304 15.3951 26.3246C15.658 26.3122 15.6659 26.4225 15.925 26.4064C16.1603 26.3912 16.0943 26.1501 16.3258 26.1318C16.6287 26.1078 17.2284 26.3054 17.5241 26.2762C17.7959 26.2492 18.1319 25.9562 18.3972 25.925C18.7714 25.8807 18.7242 26.2175 19.8239 25.9843C20.0545 25.9348 20.0904 25.6065 20.3163 25.5666C20.7738 25.4862 21.7615 25.9919 21.8383 25.6087C21.885 25.3775 22.7627 25.7196 22.5738 25.4378C22.3607 25.1206 23.7586 24.7808 23.7304 25.1223C23.7164 25.2916 24.3437 24.3542 24.2342 24.9632C24.1808 25.2626 24.9783 24.4024 25.1405 24.6348C25.3683 24.9617 25.5771 24.4531 25.7772 24.3592C26.0916 24.2116 26.4131 23.3831 26.6236 23.9027C26.7287 24.1602 27.0464 23.3091 27.2757 23.4127C27.8913 23.6907 27.534 23.1488 27.6261 23.0146C27.7946 22.7678 27.8772 22.5162 27.8654 22.263C27.8594 22.1359 27.8821 21.6315 27.8297 21.5104C27.7778 21.7125 27.6866 21.9091 27.5602 22.1006C27.3981 22.3454 27.0296 22.3453 26.8533 22.6374C26.5313 23.1688 26.1988 22.7672 26.0391 23.172C25.951 23.3947 25.6996 23.5687 25.4408 23.6903C25.1584 23.822 24.5954 23.8086 24.2731 23.9293C23.9297 24.0581 23.8779 24.3487 23.4929 24.4638C23.1243 24.5744 22.6759 24.5926 22.2722 24.69C22.0477 24.7449 21.3465 24.9515 21.112 25.0016C20.8313 25.0619 20.487 24.9222 20.1932 24.9762C19.6997 25.0676 19.7237 25.25 19.196 25.3238C18.7769 25.3826 18.3032 25.2345 17.9098 25.482C17.5177 25.7296 16.8555 25.62 16.4439 25.4308C16.0512 25.2495 15.5623 25.6743 15.1062 25.6961Z" fill="#F3BA60"/>
<path opacity="0.3" d="M27.8343 22.0933C27.8521 22.0038 27.8558 21.9146 27.8435 21.8252C27.8304 21.7285 27.8189 21.3863 27.7773 21.2194C27.7762 21.2071 27.7748 21.195 27.774 21.1825C27.7714 21.1822 27.7682 21.1816 27.7656 21.1808C27.7614 21.1683 27.7568 21.1572 27.7515 21.1485C27.7508 21.152 27.7496 21.1551 27.7487 21.1586C27.6639 20.8006 27.3329 20.4753 26.7979 20.1893C26.7213 20.2403 26.6251 20.2637 26.53 20.2598C26.4957 20.2065 26.4592 20.1526 26.4214 20.0973C26.4317 20.0981 26.4424 20.0973 26.4525 20.0985C26.4792 20.0893 26.494 20.0698 26.5056 20.0461C25.7833 19.7201 24.7779 19.4522 23.5584 19.2533C23.5247 19.2865 23.4849 19.3144 23.4378 19.332C23.4367 19.3424 23.4336 19.3532 23.4319 19.3637C23.372 19.3657 23.3016 19.37 23.2208 19.3712C23.1429 19.3258 23.0858 19.2554 23.0551 19.1771C20.6047 18.8314 17.3992 18.7455 13.928 18.9998C9.30358 19.3386 5.30326 20.2002 3.01097 21.2327C3.11522 21.3203 3.20855 21.4146 3.29051 21.5145C3.32683 21.5277 3.3646 21.5393 3.40006 21.5538C3.55276 21.6154 3.7157 21.7019 3.87869 21.768C3.88775 21.7683 3.8952 21.7688 3.90608 21.7693C4.59864 21.7968 5.3617 22.2657 5.74897 22.7846C5.81975 22.8164 5.91916 22.8351 5.95492 22.8416C6.4142 22.8744 6.8695 22.8434 7.32836 22.8694C7.49287 22.8788 7.6571 22.8947 7.82063 22.9173C7.8388 22.9131 7.85733 22.9096 7.8754 22.9078C8.16626 22.8787 8.39808 22.9046 8.58055 22.9716C8.57352 23.0015 8.56202 23.0309 8.54727 23.0588C8.79771 23.1228 9.0442 23.1999 9.28349 23.2901C9.47418 23.3625 9.66452 23.4421 9.85984 23.5043C9.95205 23.5334 10.0029 23.5528 10.0279 23.5652C10.0703 23.5679 10.131 23.5734 10.2163 23.5825C11.3355 23.7012 12.5322 23.6133 13.6328 23.8024C14.3828 23.9311 14.9959 24.1462 15.6836 24.4198C15.6904 24.4226 15.7292 24.4325 15.7822 24.4462C16.1205 24.3 16.4829 24.2393 16.8577 24.2708C16.8514 24.2261 16.8458 24.1811 16.844 24.1348C16.8456 24.1336 16.8469 24.132 16.8485 24.131C16.853 24.1282 16.8574 24.1256 16.8621 24.1232C16.9239 24.0873 16.9871 24.0654 17.0508 24.0571C17.0577 24.0509 17.0636 24.0446 17.0726 24.039C17.1886 23.9402 17.3291 23.9129 17.456 23.9319C17.4343 24.0783 17.4486 24.2345 17.4932 24.381C17.5808 24.4042 17.7019 24.4271 17.8446 24.4342C17.8547 24.4345 17.8628 24.4352 17.8721 24.4356C17.9028 24.4315 17.9382 24.4276 17.9803 24.4231C18.5452 24.3628 19.1277 24.3444 19.6971 24.4158C20.1742 24.4759 20.8495 24.4003 21.4657 24.4067C22.09 24.4128 22.6259 24.625 23.1898 24.8162C23.4915 24.7324 23.8031 24.6758 24.1247 24.6597C24.2367 24.6542 24.3537 24.6511 24.4721 24.6498C24.7445 24.424 25.0948 24.2675 25.5248 24.2132C25.8109 24.1769 26.1212 24.1976 26.4177 24.2692C26.6861 23.9656 27.0645 23.7435 27.4978 23.6434C27.7769 23.0835 27.8421 22.5899 27.8343 22.0933Z" fill="#414042"/>
<path d="M25.7901 17.075C25.7025 17.1571 25.3277 16.8322 25.1741 16.8534C24.9756 16.7878 24.7688 16.7249 24.553 16.664C22.1842 15.9954 18.8038 15.6077 15.0577 15.6697C10.6 15.7433 6.68006 16.436 4.37765 17.4288L2.17919 17.465C2.17919 17.465 2.17125 17.5688 2.16819 17.7338C2.16683 17.901 2.28776 18.3044 2.18674 18.3715C2.00247 18.3159 2.30003 18.9676 2.29815 19.1082C2.16383 19.0523 2.6049 19.782 2.6153 19.7454C2.97199 20.2021 3.10847 20.2741 3.30824 20.3772C3.39998 20.4166 3.37971 20.2742 3.73266 20.6686C4.03824 20.993 3.94103 20.7034 4.23009 20.9708C4.44746 21.1308 4.60235 21.1808 4.78049 21.2486C4.9193 21.2734 5.1502 21.4204 5.32305 21.4662C5.3828 21.3436 5.85625 21.8191 5.9498 21.7158C6.1464 21.7653 6.31966 21.7642 6.61423 21.9263C6.6693 21.7605 7.16763 22.2391 7.24698 22.0829C7.51406 22.2043 7.43434 21.7985 7.94855 22.259C8.24152 22.3915 8.49007 22.4439 8.68042 22.3955C9.10858 22.7005 9.20017 22.4909 9.46603 22.5257C9.76642 22.6116 10.0109 22.5994 10.2953 22.6312C10.2565 22.2488 11.0037 23.0219 11.0111 22.6861C11.1832 22.5961 11.4994 22.7073 11.7844 22.7622C12.1292 22.9059 12.3966 22.9236 12.5756 22.7987C12.8903 22.8756 12.9431 22.5523 13.4101 22.8324C13.6926 22.8387 14.2095 23.1815 14.2754 22.8433C14.5107 22.7563 14.9803 23.0058 15.1762 22.8367C15.3774 22.8155 15.6088 22.8405 15.8091 22.8228C16.1254 22.9769 16.1995 22.7747 16.4245 22.7982C16.4816 22.5725 16.8997 22.8856 17.0249 22.7663C17.2226 22.7548 17.3535 22.6473 17.6095 22.7276C17.7649 22.6578 17.9859 22.6887 18.1779 22.6801C18.2786 22.5351 18.5686 22.6738 18.7306 22.6253C19.1772 22.6626 19.5581 22.6146 19.8747 22.4838C20.0692 22.4723 20.2512 22.4458 20.4272 22.4133C20.6035 22.3813 20.8399 22.4423 20.9432 22.3078C21.2745 22.512 21.4627 22.5088 21.4497 22.2098C21.6787 22.2686 21.7006 22.0248 21.9387 22.104C22.0887 22.0193 22.2537 21.9606 22.4269 21.9186C22.6003 21.8767 22.7816 21.8513 22.9645 21.8326C23.3718 21.8561 23.5283 21.5256 23.9139 21.5522C24.3284 21.6219 24.3569 21.138 24.7744 21.2482C24.8945 20.9189 25.3863 21.1574 25.5269 20.8942C25.7817 20.8014 25.9382 20.5802 26.1946 20.5278C26.3149 20.2728 26.6165 20.306 26.7829 20.1574C27.0224 20.1192 27.1544 19.9395 27.2784 19.7685C27.1837 19.2737 27.6482 19.6269 27.6866 19.3704C27.8602 19.1923 27.9846 18.9851 27.9995 18.6656C28.0962 18.4665 27.9569 17.9667 28.0906 17.927C28.0562 17.6374 28.1648 17.6144 28.0361 17.2991C28.0002 17.1208 27.9782 17.024 27.9884 17.0389C27.8964 16.9013 27.9003 17.1145 27.6447 17.0445C27.6114 17.3039 27.141 17.0182 26.8895 17.0568C26.6253 17.0776 26.4868 17.2847 26.1484 17.0918C26.0416 17.2409 25.7962 17.0835 25.7901 17.075Z" fill="url(#paint1_radial_6944_16654)"/>
<path d="M27.9896 17.0363C28.0069 18.069 26.6239 18.7595 25.754 19.1623C24.6823 19.6592 23.4966 19.9344 22.3196 20.1521C19.9572 20.5892 17.553 20.7932 15.1439 20.833C8.01685 20.9511 2.21269 19.4418 2.18006 17.4627C2.14728 15.4838 7.89826 13.7838 15.0256 13.6658C22.1531 13.5482 27.9566 15.0573 27.9896 17.0363Z" fill="#993923"/>
<path d="M24.8136 16.597C24.754 16.6262 24.6943 16.6581 24.6331 16.6879C24.6402 16.6879 24.6478 16.6884 24.6555 16.688C24.8041 16.6896 24.9486 16.6688 25.0887 16.6259C25.1094 16.4311 25.0172 16.4212 24.8136 16.597Z" fill="#AB5130"/>
<path d="M14.3855 19.3973C14.3711 19.3923 14.3589 19.3876 14.3457 19.3828C14.3767 19.4079 14.4084 19.4324 14.439 19.4584C14.449 19.467 14.4555 19.4733 14.4625 19.4806C14.4829 19.4746 14.5079 19.4692 14.5425 19.4648C14.6218 19.4544 14.6955 19.4421 14.7678 19.4299C14.6418 19.4306 14.4802 19.4296 14.3855 19.3973Z" fill="#AB5130"/>
<path d="M7.22183 15.3359C7.24292 15.3374 7.2634 15.3383 7.28588 15.3439C7.47855 15.392 7.69743 15.398 7.91003 15.3665C7.82171 15.2504 7.53087 15.2723 7.22183 15.3359Z" fill="#AB5130"/>
<path d="M7.83726 17.4008C7.79678 17.4554 7.75979 17.5117 7.71984 17.5665C7.69594 17.5997 7.72111 17.5835 7.65202 17.5523C7.44861 17.4607 7.26467 17.4427 7.0414 17.4843C6.58027 17.5703 6.47729 18.009 6.64555 18.3362C6.81915 18.6746 7.36302 18.3883 7.23038 18.0548C7.27146 18.0421 7.2808 18.0537 7.32203 18.0716C7.46902 18.1369 7.61596 18.1909 7.78328 18.1706C8.11033 18.1318 8.25484 17.9144 8.42123 17.6917C8.66126 17.3702 8.0751 17.0825 7.83726 17.4008Z" fill="#993923"/>
<path d="M21.0607 13.9877C21.0621 14.1638 21.0369 14.326 20.9876 14.5045C20.9652 14.5852 20.9167 14.64 20.8571 14.6749C21.1417 14.7036 21.4062 14.7612 21.623 14.9232C21.9083 14.875 22.2337 14.8689 22.5542 14.9039C22.6068 14.8751 22.6593 14.8481 22.7132 14.8247C22.8392 14.7692 22.9825 14.7812 23.0858 14.8434C23.1147 14.8424 23.1439 14.8428 23.1734 14.8465C23.177 14.8469 23.1809 14.8474 23.1845 14.848C23.3284 14.8662 23.4248 14.9959 23.4336 15.1232C23.5696 15.1815 23.6933 15.2498 23.7988 15.3294C23.9502 15.4434 23.9316 15.7212 23.7389 15.798C23.6561 15.8308 23.5985 15.876 23.5643 15.9252C23.5428 15.918 23.5199 15.9132 23.4974 15.9068C23.48 15.9535 23.4616 16.0002 23.4408 16.0451C23.6858 15.8929 23.9192 15.7032 24.1686 15.6042C24.5205 15.4645 24.9217 15.418 25.3014 15.4534C25.8536 15.5046 26.617 15.9149 26.6326 16.4596C26.6375 16.6016 26.5627 16.7173 26.4468 16.8137C26.5206 16.9576 26.6245 17.1046 26.728 17.1775C26.7431 17.1882 27.3389 16.8545 27.4213 16.8302C27.8329 16.7095 28.0186 17.281 27.6086 17.4013C27.1522 17.535 26.8385 18.0125 26.3141 17.6436C26.1365 17.5188 25.9698 17.3116 25.8529 17.0986C25.6145 17.1727 25.3764 17.2221 25.2257 17.2622C24.7593 17.3854 24.3569 17.3502 23.9773 17.2201C23.9995 17.2903 24.0119 17.4393 24.1331 17.4313L24.1453 17.4302C24.1547 17.4296 24.1651 17.4279 24.1757 17.4256C24.1739 17.451 24.1728 17.4765 24.1692 17.5024C24.3693 17.52 24.5163 17.6332 24.6896 17.7134C24.8034 17.7663 25.3141 17.5333 25.4868 17.487C25.4969 17.4846 25.5062 17.485 25.516 17.4826C25.5811 17.5513 25.6544 17.6083 25.7275 17.6418C26.0086 17.7695 25.8361 17.8444 25.6011 17.968C25.2844 18.1348 24.9376 18.1267 24.5853 18.1299C24.2466 18.1324 24.0274 18.0188 23.7724 17.9217C23.7681 17.9322 23.7667 17.9428 23.7609 17.9531C23.6928 18.0284 23.6645 18.1003 23.6745 18.1695C23.8006 18.2219 23.8956 18.3421 23.8709 18.505C23.8531 18.6218 24.0594 18.7375 24.044 18.8752C24.0303 19.0018 24.0063 19.0848 23.8957 19.1716C23.6227 19.3877 23.2357 19.1245 23.3217 18.8832C23.3161 18.8735 23.3102 18.8627 23.3042 18.8494C23.2786 18.8012 23.2542 18.7521 23.23 18.7034C23.2177 18.7007 23.2061 18.6986 23.1929 18.6948C23.0803 18.6579 22.969 18.6177 22.8559 18.5809C22.7118 18.5342 22.6277 18.4356 22.614 18.3251C22.3995 18.204 22.1752 18.0965 21.9726 17.961C21.8269 17.8968 21.7155 17.8124 21.6355 17.6938C21.6262 17.8165 21.526 17.9384 21.3921 17.9801C21.2419 18.0272 21.1202 18.0578 21.0164 18.0935C21.0287 18.1174 21.0385 18.1424 21.0473 18.17C21.0946 18.3203 21.0649 18.4854 21.0022 18.6402C21.3159 18.7536 21.5881 18.9044 21.8025 19.1731C21.9646 19.3764 21.7791 19.5754 21.5618 19.6072C21.5664 19.6266 21.5723 19.6454 21.5805 19.6637C21.5496 19.6473 21.5194 19.6293 21.4895 19.6112C21.3934 19.6082 21.298 19.5707 21.2289 19.4834C21.0429 19.2505 20.7425 19.1782 20.4497 19.0973L20.4497 19.0978C20.4351 19.2208 20.3652 19.3634 20.2082 19.3892C19.6952 19.4729 18.929 19.5573 18.5497 19.1393C18.3879 18.9605 18.2538 18.7956 18.2129 18.5828C18.0741 18.6297 17.9295 18.6706 17.7823 18.7148C17.6161 18.7644 17.4546 18.677 17.3861 18.5519C17.3257 18.6065 17.2695 18.6723 17.2181 18.7567C17.1243 18.911 17.1532 19.098 17.2656 19.2329C17.2427 19.2362 17.2201 19.2376 17.1976 19.2405C17.2007 19.271 17.2029 19.3012 17.2039 19.3316C17.2194 19.3411 17.2355 19.3499 17.2509 19.3599C17.3765 19.4413 17.5624 19.4303 17.67 19.5318C17.7748 19.6301 17.8097 19.7319 17.8019 19.8661C17.7811 20.2062 17.2463 20.2529 17.1473 19.9866C17.1214 19.9782 17.0945 19.9719 17.0689 19.9615C16.9642 19.913 16.8699 19.8484 16.7723 19.7896C16.6392 19.7098 16.5196 19.6076 16.5303 19.4509C16.5367 19.3553 16.531 19.2564 16.5182 19.1585C16.4883 19.1287 16.478 19.1329 16.4056 19.218C16.3844 19.2427 16.3632 19.2686 16.3407 19.2947C16.2153 19.2956 16.0904 19.2949 15.9654 19.2915C15.8069 19.2871 15.1689 19.2176 15.1644 19.2054C15.0782 18.9735 14.683 18.9003 14.5476 19.1437C14.4312 19.3542 14.3651 19.5731 14.0243 19.5344C13.8414 19.5134 13.6375 19.4572 13.4898 19.3594C13.1605 19.1409 13.1299 19.0845 13.1879 18.7511C13.2831 18.1997 12.8885 17.941 12.3035 18.05C12.2172 18.0665 12.1551 18.1063 12.1112 18.1576C12.2431 18.2486 12.3996 18.324 12.5149 18.4306C12.7138 18.6136 12.7465 18.8547 12.5065 19.0243C12.3574 19.13 12.1109 19.1197 11.9316 19.1223C11.8195 19.124 11.7075 19.123 11.5962 19.1312C11.551 19.134 11.5276 19.1346 11.5001 19.1396C11.46 19.1899 11.4054 19.2256 11.344 19.2455C11.3336 19.2337 11.3226 19.2224 11.3127 19.2093C11.2938 19.2154 11.275 19.2199 11.2562 19.2244C11.2634 19.2369 11.2683 19.2496 11.2751 19.262C11.2437 19.2657 11.2118 19.2657 11.179 19.2604C11.1165 19.301 11.0544 19.3427 10.9907 19.3821C10.975 19.374 10.9592 19.3666 10.9439 19.358C10.9177 19.2934 10.8945 19.2415 10.8482 19.1744C10.7963 19.0991 10.715 19.0751 10.6278 19.0392C10.5995 19.0278 10.5757 19.017 10.553 19.0066C10.5199 18.893 10.4469 18.8084 10.35 18.7433C10.3416 18.6942 10.3342 18.6354 10.3235 18.5608C10.3014 18.4071 10.1459 18.3221 9.98407 18.3947C9.95767 18.4066 9.86603 18.4688 9.76139 18.5442C9.74471 18.5389 9.72774 18.5352 9.71059 18.5318C9.7139 18.4564 9.71538 18.3802 9.7117 18.3028C9.7007 18.0819 9.39854 17.9698 9.21915 18.1311C9.0827 18.2537 8.94905 18.3782 8.81558 18.5036C8.80628 18.5121 8.7962 18.5202 8.78667 18.5282C8.98344 18.5406 9.13803 18.717 9.08736 18.8982C9.05016 19.0315 8.96656 19.1576 8.9718 19.2973C8.9863 19.6811 8.31569 19.6914 8.30127 19.3082C8.29902 19.2447 8.3067 19.1863 8.31902 19.129C8.084 19.0722 7.92093 18.913 8.00939 18.6126C8.0293 18.5449 8.05722 18.4798 8.08764 18.4155C8.08379 18.4133 8.07943 18.412 8.07542 18.41C8.0711 18.3543 8.05432 18.3235 8.01741 18.3483C8.00858 18.3545 8.00157 18.3616 7.99328 18.3678C7.94853 18.3441 7.90381 18.3214 7.86023 18.2952C7.85281 18.1616 7.72615 18.0594 7.57617 18.0588C7.56496 18.0586 7.55363 18.0582 7.5423 18.0578C7.53581 17.8452 7.52427 17.6375 7.47724 17.4244C7.44802 17.2923 7.26703 17.2585 7.15043 17.3125C7.07498 17.3444 6.99969 17.376 6.92422 17.408C6.86844 17.3879 6.80052 17.3953 6.74109 17.4413C6.63582 17.5221 6.56227 17.6169 6.49964 17.718C6.45003 17.7161 6.38794 17.716 6.31305 17.7125C6.30351 17.7162 6.29536 17.7209 6.28479 17.7241C6.02354 17.802 5.76584 17.9147 5.49873 17.9769C5.51951 17.8617 5.456 17.7465 5.3452 17.6894L5.35099 17.6823C5.11567 17.532 4.67356 17.5687 4.39171 17.5121C4.33364 17.5007 4.28225 17.4844 4.23318 17.4664C4.06129 17.4467 3.98458 17.4732 3.98222 17.7128C3.97996 17.9206 3.70021 18.1124 3.48206 17.9784C3.45711 17.9628 3.43426 17.948 3.41026 17.9325C3.30152 17.9425 3.19119 17.9036 3.12379 17.7881L3.05485 17.6703C2.90429 17.4136 3.16467 17.178 3.42649 17.2346C3.47419 17.1458 3.53862 17.0677 3.62011 17.0071C3.69079 16.911 3.80657 16.8497 3.93729 16.8802C3.99655 16.8713 4.05895 16.8665 4.12766 16.8696C4.44093 16.8847 4.96943 17.0099 5.44064 17.0347C5.59065 16.837 5.90038 16.6985 6.14366 16.6966C6.16706 16.6966 6.19063 16.6978 6.21421 16.6988C6.22768 16.6657 6.24669 16.6327 6.27554 16.6015C6.30417 16.5713 6.33006 16.54 6.35413 16.5078C6.3084 16.5254 6.26203 16.5398 6.21437 16.5476C6.04223 16.5746 5.89564 16.5578 5.77853 16.4987C5.60782 16.6098 5.42446 16.6969 5.24063 16.7114C5.17557 16.8887 4.89419 17.0249 4.67035 16.8703C4.33778 16.6406 4.50137 16.3339 4.7248 16.0911C4.76133 16.0515 4.81348 16.0258 4.87048 16.0122C4.90109 16.1393 5.04595 16.2525 5.20093 16.2004C5.41238 16.1299 5.57158 16.0379 5.75791 15.9479C5.82416 15.9762 5.9009 15.9832 5.98522 15.955C5.98915 15.9534 5.99326 15.9529 5.99732 15.9514C6.0127 15.9636 6.02824 15.9754 6.0433 15.9882C6.15401 15.9569 6.26173 15.9257 6.3642 15.8973C6.38461 15.8916 6.40509 15.8851 6.42559 15.8784C6.47672 15.8668 6.52557 15.8506 6.57053 15.8251C6.58606 15.8167 6.59801 15.8044 6.60767 15.7907C6.61388 15.7879 6.61993 15.7853 6.62255 15.7847C6.99285 15.6877 7.50151 15.7142 7.85742 15.839C8.02531 15.8977 8.19981 15.9608 8.37777 15.9969C8.26886 15.8092 8.27875 15.5613 8.45258 15.4002C8.45063 15.3993 8.44954 15.3978 8.44766 15.3963C8.32245 15.312 8.15422 15.2717 7.98349 15.2424C7.84023 15.3435 7.60694 15.3589 7.47424 15.1857C7.43727 15.1378 7.40815 15.0868 7.37107 15.0386C7.20224 14.8186 7.46843 14.5317 7.74236 14.595C8.14662 14.6885 8.67096 14.7136 8.96788 15.0115C9.00662 15.0506 9.04227 15.0909 9.07565 15.1323C9.35146 15.0887 9.64926 15.1103 9.91645 15.1923C10.0312 15.182 10.1346 15.183 10.1764 15.219C10.2965 15.322 10.4614 15.362 10.623 15.3892C10.64 15.4599 10.6845 15.513 10.757 15.5347C10.8603 15.6737 11.0596 15.7799 11.2589 15.8621C11.4014 15.8303 11.5495 15.8371 11.6961 15.8908C11.6969 15.8671 11.6897 15.8429 11.6697 15.8248C11.4392 15.6194 10.8353 15.186 11.4015 14.9735C11.4266 14.9639 11.4548 14.9572 11.4825 14.9501C11.6825 14.9582 11.8764 14.9291 12.0876 14.9071C12.4478 14.8694 12.6596 15.1118 12.9773 15.1883C13.2603 15.2566 13.5723 15.1194 13.8211 15.0194C13.9161 14.9812 14.0121 14.9396 14.1102 14.9023C14.0986 14.826 14.1024 14.7496 14.1309 14.6808C14.1293 14.6793 14.1276 14.6782 14.1258 14.6767C14.0609 14.6397 14.0116 14.5983 13.9431 14.571C13.7206 14.531 13.5445 14.2682 13.7461 14.0671C13.7472 14.0652 13.749 14.0639 13.7506 14.0627C13.8257 13.9872 13.9665 13.9503 14.0753 13.9806C14.4186 14.076 15.1093 14.4413 14.833 14.8165C14.9501 14.8427 15.0621 14.8813 15.1849 14.8932C15.4736 14.9205 15.7101 14.8493 15.9764 14.7502C16.3038 14.6283 16.6656 14.7304 16.9923 14.5857C17.3472 14.4287 17.7231 14.4699 18.101 14.4681C18.2156 14.3484 18.2939 14.2197 18.3043 14.0829C18.6245 14.166 18.7818 14.3622 19.1254 14.0703C19.2415 13.9714 19.3528 13.8881 19.4868 13.8189C18.0949 13.6997 16.591 13.6468 15.0237 13.6727C7.89639 13.7906 2.14543 15.4906 2.1782 17.4695C2.21083 19.4486 8.01497 20.9581 15.1421 20.8398C17.5511 20.8001 19.9554 20.596 22.3177 20.159C22.498 20.1253 22.6785 20.09 22.8593 20.0534C22.6471 19.9776 22.427 19.9307 22.2109 19.8787C22.3126 19.8306 22.41 19.7786 22.5051 19.7246C22.5562 19.7308 22.6117 19.7306 22.6708 19.7209C22.871 19.6885 23.0521 19.6204 23.2347 19.5507C23.4442 19.6328 23.4444 19.8184 23.3396 19.9501C24.1719 19.7617 24.9914 19.5219 25.7523 19.169C26.6222 18.7662 28.0052 18.0757 27.9879 17.043C27.9645 15.6687 25.1594 14.5214 21.0607 13.9877ZM10.5451 20.4513C10.3756 20.4237 10.2479 20.235 10.3049 20.089C10.3081 20.0809 10.3121 20.0742 10.3152 20.0663C10.6035 20.2429 10.9548 20.3895 11.3102 20.4438C11.06 20.4821 10.8081 20.4939 10.5451 20.4513ZM18.6359 20.3175C18.3158 20.4032 18.0447 20.3447 17.8536 20.1919C18.1524 20.1855 18.45 20.1736 18.7457 20.1488C18.7804 20.1462 18.815 20.1422 18.8501 20.1388C18.8202 20.218 18.7526 20.2863 18.6359 20.3175Z" fill="#AB5130"/>
<path d="M27.9892 17.0311C27.9778 17.3161 27.7876 17.4063 27.578 17.5056C27.4361 17.706 27.127 17.6954 26.9868 17.9391C26.8093 18.1271 26.47 18.0797 26.3412 18.3136C26.4637 18.9213 26.1121 18.7937 25.7441 18.5789C25.6985 18.8512 25.3986 18.7464 25.199 18.7881C25.261 19.2187 24.6903 18.7096 24.6379 18.9682C24.6061 18.9356 24.5776 18.9074 24.55 18.8814C24.5364 18.8907 24.5231 18.8998 24.5068 18.907C24.4023 18.9528 24.2905 18.9802 24.185 18.9621C24.1826 19.071 24.1678 19.1628 24.0649 19.1231C23.8144 19.0844 23.9909 19.6796 23.4834 19.2569C22.9903 18.8562 23.4941 19.9322 22.8967 19.3743C22.9949 19.8476 22.187 18.9752 22.3078 19.4784C21.8847 19.2412 21.6481 19.2792 21.5979 19.5916C21.3237 19.5723 21.0441 19.5442 20.8851 19.6925C20.3361 19.2631 20.3128 19.6109 20.17 19.7808C19.9328 19.8103 19.9054 20.1498 19.4545 19.8595C19.1061 19.721 19.2058 20.2461 18.7237 19.9069C18.4628 19.8958 18.4497 20.2504 18.0176 19.9821C17.7586 19.9704 17.4461 19.8782 17.2925 20.0199C16.8743 19.7698 17.1583 20.5597 16.5756 20.0626C16.5104 20.3327 16.2125 20.2565 15.8499 20.0827C15.5846 20.0541 15.3702 20.0978 15.131 20.1047C14.8391 19.973 14.9315 20.4096 14.6384 20.2703C14.5462 20.4294 14.1723 20.1681 13.9572 20.1402C13.5103 19.768 13.5713 20.1455 13.3564 20.1121C13.3405 20.3728 12.8279 19.8947 12.7683 20.0843C12.5826 20.0875 12.3883 20.0747 12.1981 20.064C12.1823 20.0539 12.1661 20.0438 12.15 20.0327C12.0837 20.0367 12.0174 20.0361 11.9505 20.0251C11.9141 20.0303 11.8774 20.034 11.8407 20.0327C11.7844 20.0547 11.7221 20.0688 11.6545 20.0734C11.7241 20.4379 11.5547 20.4461 11.0786 19.9951C10.9001 19.9884 10.8168 20.1198 10.5336 19.9508C10.5099 19.9272 10.4881 19.9058 10.4659 19.8844C10.4531 19.8888 10.441 19.8945 10.4281 19.8983C10.2922 19.9382 10.1605 19.9369 10.0322 19.9017C10.0403 19.9293 10.0495 19.9589 10.0598 19.9904C9.94906 20.0693 9.95447 20.3171 9.48635 19.8586C9.67115 20.3688 8.90276 19.461 8.97043 19.7891C9.17032 20.3132 9.04745 20.3546 8.46947 19.7173C8.25409 19.672 7.99732 19.559 7.89144 19.6626C7.71472 19.6616 7.56472 19.6936 7.3117 19.565C7.27173 19.7533 6.51056 18.864 6.73636 19.4313C6.8843 19.8835 6.09893 18.9442 6.19301 19.3013C5.51074 18.507 6.13842 19.6482 5.68565 19.1786C5.82288 19.5843 5.21553 18.8782 5.20506 19.0489C5.29672 19.3399 4.92676 18.9406 4.70896 18.7617C4.58921 18.7282 4.33026 18.482 4.48365 18.8415C4.19112 18.6719 4.29036 19.0596 3.81652 18.5722C3.21345 17.8931 3.40574 18.3691 3.24611 18.2971C2.70906 17.5828 2.74041 17.7049 2.7391 17.7719C2.55954 17.5744 2.55993 17.6376 2.79199 18.0373C2.6873 17.9931 2.37382 17.6122 2.25308 17.4884C2.24902 17.4839 2.24566 17.4808 2.24157 17.4768C2.25299 17.4981 2.24259 17.5023 2.17894 17.4576C2.06533 17.4939 2.49516 18.2208 2.4204 18.0912C2.65106 18.4241 2.87335 18.717 2.78257 18.5206C2.86962 18.5874 2.62965 18.1429 3.09526 18.7195C3.34185 18.934 3.13434 18.4294 3.76463 19.1244C3.5719 18.7191 3.81579 18.951 4.20831 19.3918C4.53044 19.7287 4.34725 19.3051 4.58975 19.5038C4.22603 18.8023 4.85731 19.5672 5.07781 19.7125C5.20171 19.7142 5.58362 20.0894 5.57215 19.8707C5.93834 20.2125 5.9006 19.9456 6.11114 20.0376C6.2466 20.1281 6.45233 20.3205 6.59255 20.4137C6.73286 20.5073 6.80795 20.5014 6.68189 20.1947C6.96964 20.3823 6.81556 19.9057 7.24843 20.2902C7.6146 20.5766 7.63769 20.344 7.92009 20.4884C8.1776 20.6505 8.26396 20.5532 8.43891 20.5822C8.60032 20.5908 8.71661 20.5269 8.97002 20.6615C9.06608 20.7787 9.14504 20.8701 9.2114 20.9427C9.31515 20.9134 9.42783 20.9268 9.51878 20.9938C9.50813 20.8923 9.49969 20.7932 9.5846 20.8332C9.68955 20.7368 9.74814 20.5666 10.1185 20.8542C10.396 21.0037 10.387 20.7234 10.662 20.8595C10.9898 21.0732 10.8875 20.6448 11.2912 20.961C11.3472 21.0234 11.3965 21.075 11.4408 21.119C11.5472 21.1072 11.6616 21.122 11.7518 21.1697C11.7635 21.176 11.7746 21.1849 11.7859 21.1926C11.7928 21.0846 11.7819 20.95 11.8729 20.9651C12.0822 20.9846 12.3233 21.0469 12.5452 21.0759C12.4876 20.6905 12.8657 20.9465 13.1777 21.1001C13.1905 20.8104 13.5254 20.9936 13.8174 21.1089C13.8934 21.1822 13.9629 21.2439 14.025 21.2966C14.1073 21.3065 14.1708 21.2662 14.2344 21.2218C14.3243 21.1593 14.4211 21.1561 14.506 21.1861C14.5051 21.1769 14.5041 21.1687 14.5026 21.1599C14.5562 20.9138 14.6599 20.7376 15.1475 21.1264C15.1582 21.0072 15.3206 21.112 15.4963 21.2369C15.5457 21.2014 15.6005 21.1711 15.6613 21.1498C15.7222 21.1188 15.7904 21.1023 15.8589 21.097C15.8556 21.0894 15.8531 21.0831 15.8496 21.0748C15.7069 20.4959 16.3066 21.0158 16.5944 21.0698C16.6712 20.8106 17.2534 21.2998 17.2976 20.9883C17.4521 20.8401 18.0011 21.2755 18.0424 20.9553C18.1262 20.6988 18.6165 21.0425 18.7655 20.8789C19.0261 20.9453 19.1411 20.7944 19.3532 20.7873C19.6508 20.9065 19.5691 20.4622 19.9666 20.7287C20.2103 20.766 20.4525 20.8008 20.5851 20.6735C21.0949 21.1049 20.9044 20.4983 21.1618 20.5545C21.353 20.5124 21.7584 20.7886 21.7566 20.4599C21.9648 20.4435 22.1014 20.3207 22.3485 20.3622C22.8459 20.775 22.7802 20.3489 22.9359 20.2481C23.4241 20.6399 23.0643 19.7701 23.5162 20.102C23.5628 20.1356 23.6102 20.1694 23.6565 20.2023C23.6881 20.1939 23.7213 20.1868 23.7543 20.1812C23.8127 20.1715 23.8762 20.1759 23.9359 20.191C24.0117 20.1743 24.0893 20.1646 24.1701 20.1641C24.1517 20.0995 24.1259 20.0232 24.0897 19.9318C24.236 19.8068 24.567 19.9538 24.6549 19.7413C24.6512 19.3927 25.3684 20.1119 25.2096 19.5332C25.3263 19.3635 25.9865 20.0009 25.7525 19.3129C25.8761 19.2204 26.1043 19.2458 26.2331 19.0997C26.2086 18.7271 26.4812 18.7738 26.7226 18.7664C26.8655 18.6151 26.9087 18.3097 27.1967 18.3766C27.6939 18.7549 27.4008 17.9708 27.6086 17.9561C27.7755 17.8811 27.8298 17.665 27.8881 17.4987C28.025 17.4461 28.042 17.2617 27.9892 17.0311Z" fill="#C17528"/>
<path d="M4.26401 17.3122C4.34988 17.0501 4.65244 16.8251 4.97022 16.8985C5.05723 16.7868 5.11423 16.6661 5.11793 16.5394C5.124 16.33 4.86472 16.1578 4.63941 16.2274C4.57269 16.2482 4.51068 16.2795 4.45076 16.316C4.30303 16.2164 4.07824 16.2012 3.91785 16.3383C3.9166 16.3372 3.91499 16.3356 3.91348 16.3344C3.69961 16.5058 3.51028 16.7279 3.32308 16.9225C2.98924 17.271 3.50162 17.7557 3.86759 17.5047C3.92823 17.5116 3.99439 17.5057 4.06635 17.4824C4.10863 17.4685 4.15347 17.4517 4.19929 17.433C4.21299 17.4385 4.22721 17.4428 4.24162 17.4464C4.24352 17.4023 4.24898 17.3578 4.26401 17.3122Z" fill="#8B3223"/>
<path d="M25.3073 15.9393C25.2026 15.9551 24.6335 16.0434 24.2655 16.0269C24.2746 16.0091 24.283 15.9909 24.2929 15.9727C24.3165 15.9288 24.3405 15.8855 24.3629 15.8421C24.5456 15.8225 24.7192 15.7717 24.8644 15.6613C24.9163 15.6222 24.944 15.5747 24.9531 15.5253C24.9822 15.524 25.0113 15.521 25.041 15.5131C25.106 15.4963 25.1665 15.4739 25.2267 15.4458C25.355 15.3857 25.4107 15.2341 25.3717 15.1149C25.321 14.961 25.1377 14.8763 24.9653 14.9185C24.8438 14.9483 24.7361 15.0043 24.6569 15.0918C24.627 15.125 24.6048 15.1604 24.5907 15.198C24.4586 15.2054 24.331 15.23 24.1969 15.2087C23.9799 15.1753 23.8264 15.2687 23.7469 15.4448C23.7426 15.4562 23.7367 15.4681 23.7309 15.4794C23.6534 15.3722 23.5015 15.3039 23.3626 15.2985C23.2394 15.2935 23.1213 15.2994 23.0032 15.3126C22.9983 15.2828 22.9931 15.253 22.9876 15.2215C22.9613 15.0762 22.756 14.9531 22.5968 14.9668C22.2924 14.9927 22.0634 15.0374 21.801 15.1806C21.6161 15.2817 21.6532 15.5455 21.8689 15.5919C21.9583 15.6107 22.0464 15.6249 22.1342 15.6372C22.0902 15.7286 22.0875 15.8234 22.1134 15.9081C22.5542 15.7486 23.0539 15.6008 23.5151 15.7434C23.8083 15.8337 24.0936 16.0524 24.0106 16.3308C24.013 16.3308 24.0143 16.331 24.0164 16.331C24.4444 16.3571 24.4583 16.9526 24.0264 16.9261C23.9713 16.9239 23.9158 16.9192 23.861 16.9125C23.8547 16.9115 23.8503 16.9111 23.845 16.9106C23.6755 17.0251 23.3592 17.0142 23.3031 16.7923C23.0544 16.8249 22.7859 16.7933 22.5701 16.7008C22.5701 16.7011 22.5697 16.7013 22.5692 16.7013C22.3712 16.7627 22.2272 16.6607 22.1754 16.5252C22.1713 16.5267 22.1678 16.5283 22.1639 16.5295C22.1284 16.5426 22.096 16.5483 22.0639 16.551C21.9332 16.5961 21.8054 16.6521 21.6708 16.72C21.2481 16.933 21.4645 17.5009 21.9232 17.5014C22.2496 17.5016 22.5766 17.4784 22.8963 17.4249C22.9412 17.4361 22.9887 17.4418 23.0399 17.4378C24.074 17.365 25.4122 17.3271 25.6731 16.2539C25.7251 16.0436 25.5274 15.9063 25.3073 15.9393Z" fill="#8B3223"/>
<path d="M21.4924 14.8524C21.3998 14.6052 21.1724 14.5039 20.9163 14.4734C20.8321 14.386 20.7086 14.3273 20.5738 14.3303C20.5069 14.3317 20.4395 14.3302 20.373 14.3277C20.386 14.0792 20.0263 13.9038 19.7955 14.0463C19.6982 14.1069 19.5919 14.1532 19.4865 14.2018L19.4828 14.204C19.423 14.2314 19.3643 14.2598 19.3077 14.2925C19.1382 14.3906 19.1012 14.5321 19.1422 14.6552C18.8793 14.6792 18.6154 14.6918 18.3525 14.7129C18.2492 14.462 17.9869 14.2754 17.6357 14.2695C17.2253 14.2627 16.8472 14.4074 16.4583 14.4929C16.5541 14.3279 16.5587 14.1211 16.401 13.9849C16.2625 13.8651 16.0629 13.8852 15.9258 13.9929C15.8788 14.0298 15.837 14.0813 15.8197 14.1369C15.5777 14.1522 15.4026 14.3572 15.4703 14.5689C15.4871 14.6214 15.5085 14.6735 15.5344 14.7226C15.4677 14.7201 15.3967 14.7405 15.332 14.7935C15.1696 14.9266 14.9858 15.0328 14.788 15.119C14.8276 14.9683 14.7574 14.8044 14.5474 14.7619C14.2524 14.7018 14.0029 14.7624 13.7392 14.8463C13.4962 14.7081 13.196 14.7352 12.8843 14.7788C12.654 14.5641 12.1922 14.5695 11.8138 14.7171C11.804 14.6993 11.792 14.6837 11.7811 14.6674C11.7869 14.662 11.7931 14.6577 11.7981 14.6515C11.82 14.6257 11.8359 14.6158 11.8534 14.6051C11.9172 14.5659 11.9882 14.553 12.071 14.5144C12.2407 14.4356 12.1587 14.1791 11.9675 14.1937C11.8318 14.2041 11.7158 14.2597 11.6118 14.3362C11.5658 14.3702 11.5312 14.4092 11.4964 14.4523C11.4926 14.4571 11.4914 14.4625 11.4883 14.4678C11.3755 14.4551 11.2544 14.5179 11.1951 14.5989C11.1082 14.7176 11.141 14.8412 11.1877 14.9655C11.1979 14.9927 11.207 15.0199 11.2165 15.0478C11.2086 15.0545 11.2009 15.0627 11.194 15.0718C11.1615 15.091 11.131 15.1119 11.1012 15.1363C11.0831 15.1487 11.066 15.1622 11.0523 15.1776C11.0451 15.1843 11.0392 15.1911 11.0331 15.1981C10.9207 15.0792 10.7947 14.9745 10.6246 14.9131C10.3418 14.8115 10.0193 14.9123 9.74085 14.9858C9.53939 15.0388 9.34307 15.1139 9.14842 15.184C9.07619 15.2117 9.00477 15.2409 8.93381 15.271C8.81469 15.3377 8.79567 15.3415 8.87642 15.2831C8.60356 15.1935 8.31875 15.3802 8.07612 15.5465C7.80523 15.3712 7.3934 15.4873 7.13566 15.7383C7.14652 15.6792 7.13642 15.6171 7.0953 15.5569C7.07882 15.5332 7.05858 15.5136 7.03667 15.4959C7.02678 15.4315 6.99471 15.3701 6.93542 15.3192C6.8236 15.2233 6.6362 15.1987 6.50291 15.2767C6.331 15.3775 6.1979 15.5078 6.07769 15.6538C6.01164 15.6717 5.94671 15.6936 5.88244 15.7172C5.74644 15.6561 5.5993 15.61 5.4504 15.5773C5.33447 15.4702 5.17566 15.4158 4.99884 15.4407C4.88947 15.4561 4.80201 15.5037 4.72797 15.576C4.67634 15.5843 4.62564 15.5839 4.57169 15.5719C4.21067 15.4922 4.01329 15.9379 4.33006 16.1028C4.53207 16.208 4.87455 16.2101 5.08994 16.0882C5.11814 16.1037 5.14754 16.1164 5.1782 16.1214C5.19287 16.1237 5.20741 16.1273 5.22194 16.1297C5.1213 16.2791 5.25669 16.4568 5.4506 16.4724C5.60639 16.4848 5.7453 16.4455 5.88136 16.3946C5.84347 16.5457 5.9265 16.6883 6.07327 16.7588C6.31317 16.6792 6.57834 16.6541 6.82777 16.7013C6.85226 16.7058 6.87632 16.7118 6.90007 16.7183C6.90644 16.7182 6.91283 16.7179 6.9191 16.7173C6.91899 16.72 6.91923 16.7218 6.91914 16.7243C7.12462 16.786 7.30334 16.9208 7.35649 17.0998C7.39848 17.0919 7.44136 17.0774 7.484 17.0536C7.55689 17.0128 7.62551 16.97 7.68785 16.9205C7.78419 16.8777 7.85808 16.8114 7.88579 16.7223C7.76255 16.6871 7.53842 16.6016 7.55585 16.5931C7.4569 16.6406 7.31601 16.6604 7.21714 16.5985C7.08866 16.5188 6.9121 16.5337 6.75939 16.5173C6.33176 16.4719 6.50468 15.8953 6.92817 15.9402C7.09991 15.9586 7.25814 15.9606 7.40909 16.0136C7.63449 15.9577 7.83637 16.0029 8.01233 16.1441C8.09643 16.1548 8.18208 16.1561 8.26776 16.1541C8.36912 16.0981 8.46633 16.0387 8.56426 15.9742C8.7719 15.8381 8.82182 15.9862 9.02237 15.927C9.06631 15.9141 9.11008 15.9 9.15396 15.8863C9.35931 15.4979 9.95258 15.3918 10.3559 15.5964C10.3924 15.6083 10.4243 15.6279 10.4545 15.6553C10.492 15.682 10.528 15.7104 10.56 15.7435C10.634 15.8202 10.6836 15.9059 10.7139 15.9932C10.8375 16.1506 10.9744 16.207 11.1379 16.2193C11.2801 16.4686 11.7534 16.5525 11.8987 16.2478C11.919 16.2049 11.9361 16.1618 11.9498 16.1197C11.8624 16.0548 11.78 15.9824 11.6991 15.912C11.6245 15.8472 11.5818 15.7408 11.5994 15.6452C11.5979 15.6176 11.5995 15.5905 11.607 15.5645C11.7466 15.0885 12.5266 15.0479 12.9516 15.1879C13.2038 15.2712 13.4355 15.4441 13.4652 15.6928C13.5562 15.7224 13.6556 15.7285 13.741 15.698C14.0007 15.6058 14.2819 15.5271 14.521 15.3963C14.51 15.5464 14.6087 15.7124 14.7598 15.778C14.729 15.7922 14.6989 15.808 14.6686 15.824C14.6517 15.8322 14.6354 15.8408 14.6185 15.8479C14.6198 15.8488 14.6203 15.85 14.6215 15.8509C14.5927 15.8684 14.5632 15.8869 14.5347 15.9076C14.1417 16.1887 14.6548 16.6628 15.0522 16.4833C15.1339 16.4464 15.2129 16.4044 15.2889 16.3588C15.3698 16.3792 15.4564 16.3782 15.5365 16.3493C15.5633 16.2312 15.6133 16.1127 15.6718 15.9914C15.6757 15.9835 15.681 15.9768 15.6852 15.9696C15.7256 15.8352 15.7725 15.7036 15.8329 15.5723C15.867 15.4975 15.9259 15.4531 15.9937 15.4325C16.0057 15.4085 16.0179 15.3845 16.0307 15.3602C16.0777 15.2672 16.2077 15.2098 16.3174 15.2081C16.3499 15.2077 16.378 15.2099 16.4034 15.2132C16.4465 15.1613 16.4887 15.1087 16.5283 15.0547C16.6281 14.9262 16.8059 14.8866 16.9468 14.9283C16.947 14.9283 16.9476 14.9282 16.9479 14.9278C17.0654 14.8345 17.2624 14.8166 17.3902 14.8923C17.4278 14.8881 17.4651 14.8854 17.5001 14.8837C17.762 14.8744 18.0902 14.9305 18.2723 15.1132C18.2761 15.1171 18.2788 15.1216 18.283 15.1262C18.3844 15.1718 18.4547 15.2623 18.4667 15.3811C18.4796 15.5099 18.4766 15.6291 18.4579 15.749C18.4618 15.7535 18.4656 15.7583 18.4698 15.7627C18.4636 15.8077 18.472 15.8554 18.4985 15.891C18.5014 15.895 18.5049 15.8993 18.5081 15.9032C18.5544 15.9657 18.6525 16.0136 18.7382 15.9822C18.7802 15.9669 18.8158 15.955 18.8485 15.925C18.8733 15.9022 18.8897 15.8751 18.9005 15.845C18.9711 15.7893 18.9965 15.7103 18.9649 15.6378C18.9699 15.6293 18.9703 15.625 18.9626 15.6327C18.9626 15.6324 18.9621 15.6322 18.9616 15.6319C19.001 15.5867 19.0344 15.5342 19.0448 15.4786C19.0758 15.4763 19.1071 15.4665 19.1368 15.448C19.146 15.4422 19.1522 15.4349 19.1574 15.4272C19.1725 15.4268 19.187 15.4262 19.2018 15.4254C19.2133 15.4157 19.223 15.4052 19.2362 15.396C19.4963 15.2054 19.821 15.1509 20.1162 15.3201C20.2488 15.396 20.3622 15.5094 20.4409 15.6392C20.5286 15.7092 20.5829 15.8169 20.5473 15.9174C20.5564 15.9705 20.5614 16.0234 20.5577 16.076C20.5575 16.0777 20.5574 16.0787 20.557 16.0802C20.6547 16.1389 20.786 16.1696 20.9615 16.1563C21.2109 16.1367 21.3619 15.9151 21.2368 15.7141C21.1492 15.5741 21.128 15.6448 21.2132 15.4885C21.2619 15.4001 21.2693 15.3105 21.2478 15.2291C21.2524 15.2276 21.2567 15.227 21.261 15.2251C21.4265 15.1633 21.556 15.0222 21.4924 14.8524Z" fill="#8B3223"/>
<path d="M5.87104 16.685C5.89953 16.6622 5.86819 16.6221 5.83462 16.6311C5.81105 16.6534 5.79157 16.6548 5.77614 16.6359C5.66725 16.5492 5.45484 16.5508 5.38752 16.6867C5.36392 16.7343 5.35381 16.7691 5.34748 16.8185C5.33781 16.8325 5.32843 16.8461 5.3194 16.8604C5.283 16.9162 5.25552 16.9721 5.24033 17.0327C5.34855 17.1252 5.4182 17.2515 5.44891 17.3863C5.48423 17.3965 5.52364 17.3931 5.55668 17.3737C5.51473 17.1833 5.62516 16.9775 5.83886 16.8593C5.85342 16.8173 5.85598 16.772 5.84141 16.7319C5.82551 16.7092 5.83508 16.6936 5.87104 16.685Z" fill="#8B3223"/>
<path d="M3.82181 19.351C3.78483 19.3412 3.75275 19.3355 3.72406 19.3122C3.71789 19.3071 3.71035 19.3039 3.70282 19.3005C3.7049 19.2104 3.54466 19.2155 3.53584 19.3082C3.53814 19.2833 3.53076 19.3149 3.52766 19.3221C3.52168 19.3371 3.51945 19.3582 3.52546 19.3738C3.53969 19.4102 3.56767 19.4295 3.60221 19.451C3.62093 19.4622 3.64517 19.462 3.66695 19.4561C3.70154 19.4727 3.73839 19.4838 3.77968 19.4952C3.88307 19.5227 3.92466 19.3784 3.82181 19.351Z" fill="#C17528"/>
<path d="M4.9365 19.7279C4.93612 19.7276 4.93586 19.7274 4.93538 19.7268C4.93183 19.7081 4.91983 19.6901 4.89649 19.6776C4.87291 19.6649 4.85296 19.6582 4.82522 19.6554C4.77992 19.6508 4.74178 19.6946 4.74272 19.7314C4.74365 19.7756 4.78661 19.807 4.81985 19.8352C4.89747 19.9016 5.01448 19.7947 4.9365 19.7279Z" fill="#C17528"/>
<path d="M5.42364 20.2594C5.41988 20.2591 5.41707 20.2588 5.41403 20.258C5.41445 20.2564 5.41418 20.2564 5.41478 20.2543C5.44336 20.1616 5.28086 20.1252 5.25246 20.2174C5.21696 20.3324 5.29882 20.4055 5.42588 20.4082C5.53419 20.4102 5.53139 20.2617 5.42364 20.2594Z" fill="#C17528"/>
<path d="M6.11422 20.2575C6.11197 20.2759 6.11088 20.2775 6.11103 20.2627C6.10845 20.1909 5.99719 20.1666 5.95799 20.2191C5.95576 20.2169 5.95391 20.2149 5.95154 20.2127C5.87794 20.1425 5.76154 20.2501 5.8349 20.32C5.86985 20.3533 5.8966 20.3859 5.94262 20.4091C5.97619 20.4264 6.02297 20.418 6.04817 20.3926C6.13468 20.4183 6.20216 20.3028 6.11422 20.2575Z" fill="#C17528"/>
<path d="M7.19552 20.3653C7.18554 20.3606 7.18194 20.3527 7.18424 20.3439C7.18052 20.2479 7.01295 20.2503 7.01664 20.3466C7.01815 20.383 7.02634 20.4145 7.05217 20.4425C7.08043 20.4748 7.12426 20.4911 7.16713 20.4677C7.20246 20.4485 7.2241 20.3972 7.19552 20.3653Z" fill="#C17528"/>
<path d="M8.00188 20.5306C7.9622 20.4784 7.84726 20.4924 7.84857 20.572L7.85001 20.6517C7.85057 20.6926 7.88932 20.7257 7.93513 20.7248L7.97969 20.7242C8.02386 20.7235 8.06495 20.6887 8.0622 20.6482C8.05942 20.6049 8.04481 20.5521 8.00188 20.5306Z" fill="#C17528"/>
<path d="M8.74659 20.7761C8.69328 20.6969 8.61001 20.7021 8.53986 20.7542C8.51952 20.7635 8.50529 20.7799 8.50281 20.8039C8.50063 20.8143 8.50135 20.8241 8.50518 20.8339C8.52281 20.9214 8.6081 20.9369 8.6964 20.8992C8.71698 20.8903 8.72912 20.8774 8.73462 20.8632C8.75825 20.8417 8.76892 20.8097 8.74659 20.7761Z" fill="#C17528"/>
<path d="M11.046 20.9023C11.0347 20.9056 11.0238 20.9069 11.0129 20.9093C11.0172 20.8772 11.0223 20.8452 11.0359 20.8152C11.056 20.7704 11.003 20.7196 10.9535 20.7225C10.9355 20.7233 10.9176 20.726 10.8996 20.7276C10.8936 20.7288 10.8872 20.7291 10.8812 20.7296C10.8643 20.7215 10.8437 20.719 10.8195 20.7273C10.799 20.7345 10.7824 20.7403 10.7664 20.754C10.7312 20.7841 10.7391 20.8295 10.768 20.8591C10.7874 20.879 10.8176 20.883 10.8491 20.8821C10.8452 20.9142 10.8418 20.9464 10.8321 20.9773C10.8173 21.024 10.8607 21.0711 10.9143 21.0697C10.9759 21.0692 11.0344 21.0617 11.0929 21.0449C11.1954 21.0157 11.149 20.8726 11.046 20.9023Z" fill="#C17528"/>
<path d="M12.25 21.1779C12.2291 21.1619 12.1996 21.154 12.204 21.1317C12.2183 21.0568 12.1274 21.0118 12.0625 21.0619C12.0493 21.0721 12.0295 21.0778 12.0094 21.0826C12.0056 21.0689 12 21.0554 11.9922 21.0414C11.9826 21.0249 11.9651 21.0097 11.9491 20.9979C11.9417 20.9922 11.9174 20.9698 11.9247 20.9801C11.868 20.8987 11.7243 20.9758 11.7811 21.0578C11.7965 21.0799 11.8167 21.0935 11.8387 21.1095C11.8579 21.1241 11.8496 21.1482 11.8416 21.1781C11.8209 21.2545 11.9215 21.296 11.9827 21.2479C12.0014 21.2338 12.0325 21.2279 12.0592 21.2218C12.0739 21.2479 12.1222 21.277 12.1331 21.2856C12.2151 21.3471 12.3325 21.2403 12.25 21.1779Z" fill="#C17528"/>
<path d="M13.8875 21.0109L13.8762 21.0109C13.8783 21.0028 13.8808 20.9944 13.8816 20.986C13.8853 20.9399 13.8226 20.8996 13.7744 20.9159C13.7512 20.9239 13.7267 20.9258 13.7011 20.9271C13.6955 20.8341 13.5316 20.8371 13.5341 20.9323C13.5353 20.9797 13.5427 21.0242 13.5775 21.0617C13.6027 21.089 13.6501 21.0864 13.6826 21.0749C13.687 21.0735 13.6917 21.0732 13.6962 21.0726C13.6955 21.0777 13.6937 21.0831 13.6932 21.0883C13.6894 21.1287 13.7354 21.1626 13.7779 21.1615L13.89 21.1592C13.9979 21.1576 13.9957 21.0088 13.8875 21.0109Z" fill="#C17528"/>
<path d="M14.7823 21.244C14.7318 21.2122 14.6763 21.1939 14.6848 21.1313C14.6907 21.0895 14.6623 21.0302 14.6023 21.0384C14.5626 21.0437 14.5444 21.0447 14.5171 21.0206C14.4887 20.9952 14.4603 20.9776 14.4226 20.9644C14.3215 20.9307 14.2806 21.0748 14.3802 21.1089C14.3946 21.1137 14.4314 21.1519 14.4493 21.1635C14.4699 21.1771 14.4952 21.1844 14.521 21.1879C14.5253 21.2161 14.5352 21.2427 14.5555 21.2686C14.5916 21.3142 14.6497 21.3421 14.7 21.3739C14.7879 21.4296 14.8696 21.2986 14.7823 21.244Z" fill="#C17528"/>
<path d="M15.4125 21.2815C15.4021 21.2813 15.3677 21.2729 15.3823 21.2837C15.2992 21.2237 15.1815 21.3306 15.2655 21.3907C15.3116 21.4238 15.3565 21.4306 15.4149 21.4299C15.523 21.4287 15.5204 21.2798 15.4125 21.2815Z" fill="#C17528"/>
<path d="M16.0247 21.3768C16.0289 21.3762 16.034 21.3756 16.0388 21.3747C15.9311 21.379 15.9332 21.5278 16.0415 21.5235C16.0859 21.5216 16.1137 21.5078 16.1446 21.4801C16.2213 21.4121 16.1011 21.3087 16.0247 21.3768Z" fill="#C17528"/>
<path d="M16.8719 21.3702L16.8726 21.4098C16.874 21.5054 17.0417 21.5029 17.0403 21.4069L17.0394 21.3671C17.0379 21.2714 16.8702 21.274 16.8719 21.3702Z" fill="#C17528"/>
<path d="M10.6799 21.2305C10.6907 21.1869 10.6653 21.1379 10.6017 21.1442C10.4736 21.1568 10.4521 21.2671 10.5623 21.3232C10.6373 21.3613 10.7031 21.2866 10.6799 21.2305Z" fill="#C17528"/>
<path d="M9.95761 21.0925C9.94654 21.0718 9.9463 21.0537 9.94581 21.0312C9.94356 20.9354 9.7761 20.9381 9.77821 21.034C9.77926 21.0842 9.79 21.1247 9.81421 21.1702C9.86035 21.2566 10.0036 21.1786 9.95761 21.0925Z" fill="#C17528"/>
<path d="M9.23309 21.1344L9.23287 21.1251C9.23119 21.029 9.06357 21.032 9.06526 21.128L9.06695 21.2269C9.06769 21.2673 9.10626 21.3009 9.15208 21.2999C9.21036 21.2987 9.25496 21.2904 9.29995 21.2559C9.36475 21.206 9.3023 21.1322 9.23309 21.1344Z" fill="#C17528"/>
<path d="M13.1208 21.3863C13.1082 21.3318 13.0324 21.2914 12.9832 21.3461C12.9123 21.4244 12.9584 21.5043 13.0677 21.5115C13.1506 21.5173 13.1669 21.4294 13.1208 21.3863Z" fill="#C17528"/>
<path d="M14.1309 21.4478C14.1323 21.452 14.1331 21.4563 14.1338 21.4607C14.1292 21.3651 13.9617 21.3675 13.9659 21.4634C13.9681 21.5029 13.9834 21.5277 14.0147 21.5548C14.0909 21.6226 14.2078 21.5152 14.1309 21.4478Z" fill="#C17528"/>
<path d="M14.284 21.6514L14.2845 21.6712C14.2862 21.7671 14.4536 21.7641 14.4522 21.6685L14.4517 21.6484C14.45 21.5525 14.2826 21.5554 14.284 21.6514Z" fill="#C17528"/>
<path d="M14.5262 21.495L14.5264 21.5147C14.5281 21.6109 14.6956 21.6081 14.6941 21.5121L14.6937 21.4923C14.6921 21.3964 14.5245 21.399 14.5262 21.495Z" fill="#C17528"/>
<path d="M13.3387 21.3312L13.3394 21.3708C13.3411 21.4667 13.5085 21.4642 13.5068 21.3681L13.5062 21.3282C13.5048 21.2322 13.337 21.235 13.3387 21.3312Z" fill="#C17528"/>
<path d="M17.6193 21.2825C17.588 21.3445 17.564 21.4126 17.5921 21.4794C17.6297 21.5682 17.791 21.5269 17.7529 21.437C17.7412 21.4087 17.7516 21.3822 17.7655 21.3551C17.8095 21.2678 17.6638 21.1947 17.6193 21.2825Z" fill="#C17528"/>
<path d="M18.1045 21.3593C18.0855 21.3734 18.0611 21.3787 18.0454 21.3966C18.0178 21.4265 18.0102 21.4732 18.0473 21.502C18.0707 21.5195 18.0914 21.5237 18.1216 21.5258C18.163 21.528 18.1879 21.5077 18.1969 21.4816C18.206 21.4753 18.2158 21.4692 18.2245 21.4625C18.3069 21.4005 18.1859 21.2976 18.1045 21.3593Z" fill="#C17528"/>
<path d="M18.6196 21.434C18.5977 21.4541 18.5758 21.4743 18.5535 21.4943C18.4786 21.564 18.5986 21.667 18.674 21.598C18.696 21.5777 18.7183 21.5573 18.74 21.5371C18.8154 21.468 18.6957 21.365 18.6196 21.434Z" fill="#C17528"/>
<path d="M18.9287 21.2047C18.9058 21.2263 18.8874 21.2457 18.8769 21.2742C18.8664 21.303 18.884 21.3462 18.9168 21.358L18.9256 21.3612C18.9679 21.3761 19.0156 21.3716 19.0402 21.3327C19.0444 21.3253 19.047 21.317 19.0486 21.3083C19.0489 21.3081 19.0491 21.3084 19.0492 21.308C19.1235 21.238 19.0035 21.1351 18.9287 21.2047Z" fill="#C17528"/>
<path d="M19.3754 21.237C19.3459 21.2653 19.3204 21.2923 19.3113 21.3305C19.2887 21.4244 19.4512 21.4612 19.4741 21.3674C19.4781 21.3564 19.4857 21.3474 19.4965 21.3402C19.5703 21.2702 19.4503 21.167 19.3754 21.237Z" fill="#C17528"/>
<path d="M19.6321 21.2532C19.6047 21.2873 19.6002 21.3295 19.6004 21.3707C19.6011 21.4669 19.7692 21.4638 19.7682 21.3678C19.7682 21.3509 19.767 21.3396 19.7787 21.326C19.841 21.247 19.6939 21.1756 19.6321 21.2532Z" fill="#C17528"/>
<path d="M19.9071 21.0262L19.9079 21.1055C19.9098 21.2017 20.0773 21.1991 20.076 21.1029L20.0747 21.0235C20.073 20.9277 19.9054 20.9302 19.9071 21.0262Z" fill="#C17528"/>
<path d="M20.2972 21.1311C20.326 21.0446 20.1695 21.011 20.1335 21.0988C20.097 21.1885 20.1621 21.2607 20.2619 21.2702C20.3074 21.2747 20.3449 21.231 20.3442 21.1945C20.3443 21.1632 20.3239 21.1421 20.2972 21.1311Z" fill="#C17528"/>
<path d="M20.4461 21.1903L20.4466 21.2156C20.4481 21.3117 20.6153 21.309 20.6144 21.213L20.614 21.1876C20.6119 21.0918 20.4445 21.0942 20.4461 21.1903Z" fill="#C17528"/>
<path d="M21.0623 20.8885C21.0192 20.8375 20.9076 20.8525 20.9114 20.9315C20.9143 20.9896 20.9532 21.0234 21.0195 21.0237C21.1086 21.0245 21.1212 20.9239 21.0623 20.8885Z" fill="#C17528"/>
<path d="M21.5428 21.1803L21.5205 21.2007C21.4454 21.2698 21.5656 21.3731 21.6415 21.304L21.6633 21.2835C21.739 21.2143 21.6185 21.1113 21.5428 21.1803Z" fill="#C17528"/>
<path d="M21.1366 21.3879C21.1071 21.3883 21.1059 21.3882 21.084 21.3709C21.0631 21.3545 21.0402 21.3495 21.0188 21.352C20.9978 21.3481 20.9763 21.3493 20.9602 21.3614C20.9541 21.3702 20.9455 21.3737 20.9348 21.3715C20.8274 21.3752 20.8293 21.524 20.9374 21.5204C20.9632 21.5193 20.986 21.5143 21.0085 21.506C21.0474 21.5281 21.0875 21.5375 21.1392 21.5367C21.2474 21.5355 21.2451 21.3869 21.1366 21.3879Z" fill="#C17528"/>
<path d="M21.7606 20.9323L21.7608 20.9522C21.7625 21.0482 21.93 21.0453 21.9289 20.9494L21.9283 20.9296C21.9267 20.8339 21.7589 20.8366 21.7606 20.9323Z" fill="#C17528"/>
<path d="M22.0061 20.6555C21.9856 20.7209 21.9833 20.7872 21.9844 20.8538C21.9856 20.9499 22.1535 20.947 22.1519 20.8513C22.1511 20.7969 22.1523 20.7452 22.1683 20.6923C22.1976 20.5996 22.0353 20.5633 22.0061 20.6555Z" fill="#C17528"/>
<path d="M22.4948 21.0485C22.4918 21.0487 22.49 21.0486 22.4875 21.0486C22.438 21.006 22.3297 21.0477 22.3481 21.1252C22.3635 21.1896 22.4353 21.198 22.4968 21.197C22.6056 21.196 22.603 21.0472 22.4948 21.0485Z" fill="#C17528"/>
<path d="M22.9436 20.8575C22.9335 20.8523 22.9298 20.8449 22.9322 20.8357C22.9284 20.7399 22.761 20.7429 22.7647 20.8383C22.7661 20.8747 22.7743 20.9062 22.7999 20.9347C22.8284 20.9665 22.8722 20.983 22.9154 20.9599C22.9507 20.9404 22.9722 20.8891 22.9436 20.8575Z" fill="#C17528"/>
<path d="M23.0516 20.5342L23.0528 20.5738C23.0542 20.6697 23.2218 20.6671 23.22 20.5708L23.2198 20.5313C23.2181 20.4356 23.0503 20.438 23.0516 20.5342Z" fill="#C17528"/>
<path d="M23.4664 20.3899C23.431 20.3671 23.4188 20.3338 23.4167 20.2964C23.4119 20.201 23.2442 20.2035 23.2492 20.2994C23.2543 20.394 23.2975 20.4652 23.3841 20.5199C23.4719 20.5755 23.5529 20.4449 23.4664 20.3899Z" fill="#C17528"/>
<path d="M24.014 20.4324C23.9971 20.3983 23.9538 20.3852 23.9168 20.3917C23.9419 20.3835 23.9613 20.365 23.972 20.3411C23.9973 20.2846 23.996 20.2182 23.9692 20.1627C23.9509 20.1257 23.9133 20.0998 23.8649 20.1125C23.8252 20.1229 23.7903 20.1675 23.8078 20.2049C23.8247 20.2403 23.8252 20.2684 23.8095 20.3041C23.7934 20.3421 23.8292 20.3854 23.87 20.3947C23.8806 20.3968 23.8901 20.3966 23.8988 20.3958C23.8723 20.4066 23.852 20.4278 23.8542 20.462C23.8621 20.5915 23.9758 20.6304 24.0935 20.5624C24.1815 20.5107 24.102 20.3899 24.014 20.4324Z" fill="#C17528"/>
<path d="M24.4481 20.2675C24.3965 20.2434 24.376 20.2182 24.4099 20.1716C24.4682 20.0908 24.3217 20.0185 24.2638 20.0992C24.1805 20.213 24.2371 20.3372 24.3658 20.3975C24.4609 20.4422 24.5435 20.3123 24.4481 20.2675Z" fill="#C17528"/>
<path d="M24.5867 20.0574L24.5876 20.1167C24.5896 20.2127 24.7568 20.2098 24.7553 20.1142L24.7542 20.0546C24.7525 19.9589 24.5853 19.9616 24.5867 20.0574Z" fill="#C17528"/>
<path d="M24.9018 19.8175C24.8785 19.7918 24.8407 19.7798 24.8014 19.8051C24.7789 19.8203 24.7593 19.8333 24.7432 19.8549C24.7272 19.8774 24.7302 19.9076 24.7447 19.93C24.7746 19.9767 24.8381 19.9654 24.8691 19.9628C24.9621 19.9551 24.9727 19.84 24.9018 19.8175Z" fill="#C17528"/>
<path d="M25.2072 19.918C25.1477 19.9488 25.1001 19.9925 25.0678 20.0465C25.0159 20.1309 25.1618 20.2033 25.2137 20.119C25.233 20.0865 25.2585 20.0638 25.2938 20.0449C25.3874 19.9966 25.3005 19.8695 25.2072 19.918Z" fill="#C17528"/>
<path d="M25.6576 19.8442C25.6504 19.8515 25.6432 19.858 25.6359 19.8646C25.5604 19.934 25.6809 20.0371 25.7561 19.9681C25.7635 19.9614 25.771 19.9546 25.7783 19.9481C25.8537 19.8785 25.7333 19.7754 25.6576 19.8442Z" fill="#C17528"/>
<path d="M26.0768 19.5934C26.0582 19.5662 26.0127 19.55 25.9765 19.563C25.9216 19.5555 25.8576 19.5932 25.88 19.6539C25.9046 19.7229 25.9856 19.7398 26.0486 19.6957C26.0842 19.6705 26.1028 19.6312 26.0768 19.5934Z" fill="#C17528"/>
<path d="M26.3484 19.3209C26.3371 19.3143 26.3291 19.3056 26.3242 19.2947C26.2987 19.2015 26.1377 19.244 26.1634 19.3366C26.1743 19.3748 26.2004 19.4011 26.2312 19.4281C26.3085 19.4955 26.4251 19.388 26.3484 19.3209Z" fill="#C17528"/>
<path d="M26.3144 18.9996C26.2443 19.0567 26.2257 19.1224 26.3117 19.176C26.3754 19.2152 26.4331 19.1602 26.4308 19.1057C26.4319 19.1049 26.4342 19.1034 26.4348 19.1028C26.5144 19.0374 26.3939 18.9347 26.3144 18.9996Z" fill="#C17528"/>
<path d="M26.5537 18.9089C26.5442 18.9153 26.5421 18.9175 26.5325 18.921C26.463 18.9459 26.4449 19.0499 26.535 19.0645C26.549 19.0667 26.5621 19.0674 26.576 19.0672C26.6082 19.0668 26.6296 19.0526 26.6421 19.0342C26.7227 18.9749 26.6385 18.8505 26.5537 18.9089Z" fill="#C17528"/>
<path d="M26.8412 19.0031C26.7973 18.9811 26.754 18.9993 26.7268 19.0318C26.7021 19.0612 26.6949 19.0931 26.6945 19.1295C26.6943 19.2255 26.8612 19.2224 26.8625 19.1267C26.8593 19.1172 26.8627 19.11 26.8727 19.1044C26.9004 19.0719 26.8771 19.0212 26.8412 19.0031Z" fill="#C17528"/>
<path d="M27.1821 18.5142C27.1828 18.4975 27.1789 18.4799 27.1684 18.4646C27.2213 18.3944 27.1109 18.3043 27.041 18.3717C27.0068 18.4051 26.9756 18.4412 26.9766 18.4886C26.9782 18.5511 27.0443 18.5744 27.1037 18.5776C27.1134 18.5777 27.1213 18.577 27.1291 18.5756C27.1123 18.6175 27.0838 18.6523 27.05 18.685C27.033 18.6372 26.9624 18.6046 26.9117 18.6519C26.869 18.6919 26.8491 18.7304 26.8446 18.785C26.8372 18.8778 26.992 18.8765 27.01 18.7909C27.0334 18.8321 27.0976 18.856 27.1446 18.813C27.2125 18.7501 27.2706 18.6838 27.2972 18.599C27.3179 18.5312 27.2378 18.494 27.1821 18.5142Z" fill="#C17528"/>
<path d="M11.6549 21.1889C11.6517 21.1892 11.6498 21.189 11.6473 21.1893C11.5978 21.1467 11.4896 21.1876 11.5084 21.2659C11.5238 21.3302 11.5954 21.3387 11.6574 21.3378C11.7655 21.3366 11.7629 21.1878 11.6549 21.1889Z" fill="#C17528"/>
<path d="M12.4488 21.4302C12.4123 21.4638 12.3757 21.4972 12.339 21.5311C12.339 21.5311 12.339 21.5311 12.3387 21.5311C12.3378 21.532 12.3368 21.5329 12.3359 21.5337C12.262 21.6037 12.3808 21.7058 12.4563 21.637C12.494 21.6025 12.5314 21.5677 12.5691 21.5334C12.6444 21.4641 12.5244 21.3609 12.4488 21.4302Z" fill="#C17528"/>
<path d="M4.1175 19.7461L3.98351 19.7483C3.87537 19.7502 3.87762 19.8988 3.98603 19.8969L4.11999 19.8951C4.22813 19.8931 4.22559 19.7446 4.1175 19.7461Z" fill="#C17528"/>
<path d="M4.41388 20.0568C4.34829 20.0594 4.30988 20.0945 4.30901 20.1523C4.3079 20.2318 4.42069 20.2425 4.46148 20.1904C4.51906 20.1528 4.50315 20.0526 4.41388 20.0568Z" fill="#C17528"/>
<path d="M4.9719 20.0465L4.93858 20.0469C4.87312 20.0482 4.84875 20.1026 4.86317 20.1458C4.83303 20.1278 4.79199 20.1241 4.75795 20.1514C4.7311 20.1725 4.69539 20.1856 4.66413 20.2005C4.56814 20.2452 4.6553 20.3724 4.75073 20.3278C4.7964 20.3064 4.83965 20.2848 4.87815 20.2547C4.90486 20.2335 4.9081 20.2086 4.89998 20.1866C4.91156 20.1916 4.92469 20.196 4.94098 20.1954L4.97441 20.1953C5.08255 20.1932 5.08016 20.0447 4.9719 20.0465Z" fill="#C17528"/>
<path d="M7.08542 20.7496L6.99968 20.7507C6.89142 20.7525 6.89378 20.9014 7.00217 20.8996L7.08783 20.8979C7.19591 20.8966 7.19354 20.7478 7.08542 20.7496Z" fill="#C17528"/>
<path d="M7.61133 21.015C7.61823 21.0121 7.6157 21.0116 7.60363 21.0135C7.49576 21.0169 7.49797 21.166 7.60606 21.1616C7.65759 21.1603 7.69186 21.1466 7.7318 21.1184C7.81622 21.0583 7.69487 20.9556 7.61133 21.015Z" fill="#C17528"/>
<path d="M8.08914 21.0524C8.11082 20.9655 7.95681 20.9323 7.92625 21.0216C7.89326 21.1182 7.93398 21.1914 8.05465 21.193C8.1487 21.1942 8.15886 21.0826 8.08914 21.0524Z" fill="#C17528"/>
<path d="M8.70063 21.0574C8.61972 21.0751 8.53793 21.0774 8.45487 21.0788C8.34673 21.0808 8.34939 21.2294 8.45734 21.228C8.55534 21.226 8.65207 21.2215 8.74761 21.2007C8.85261 21.177 8.80558 21.0342 8.70063 21.0574Z" fill="#C17528"/>
<path d="M2.76817 18.9703C2.763 18.9604 2.75714 18.9389 2.75471 18.9417C2.82501 18.869 2.70499 18.7651 2.63426 18.8381C2.56945 18.9057 2.58381 18.9729 2.6248 19.0477C2.6722 19.1337 2.81535 19.0557 2.76817 18.9703Z" fill="#C17528"/>
<path d="M3.16049 19.1237C3.12082 19.0903 3.07824 19.0547 3.02164 19.048C2.91572 19.0347 2.87253 19.1787 2.97943 19.1917C3.00723 19.1953 3.02411 19.2147 3.04369 19.2313C3.12143 19.2977 3.23848 19.1904 3.16049 19.1237Z" fill="#C17528"/>
<path d="M11.1294 21.4625C11.0922 21.4971 11.0731 21.5274 11.0733 21.5754C11.0738 21.6717 11.2412 21.6687 11.2409 21.5725C11.2434 21.5711 11.2462 21.5692 11.2497 21.5658C11.3248 21.4961 11.2046 21.3927 11.1294 21.4625Z" fill="#C17528"/>
<path d="M10.9325 21.19L10.9345 21.3091C10.936 21.4051 11.1035 21.4025 11.1019 21.3067L11.1002 21.1876C11.0984 21.0916 10.9308 21.0944 10.9325 21.19Z" fill="#C17528"/>
<path d="M17.2944 20.9285C17.2778 20.9312 17.2639 20.9366 17.2497 20.9442C17.2447 20.9472 17.2171 20.9612 17.2279 20.9591C17.1219 20.9776 17.169 21.1202 17.2749 21.1019C17.2913 21.0989 17.3051 21.0939 17.3194 21.0856C17.3247 21.083 17.3521 21.0689 17.3413 21.0713C17.4474 21.0529 17.3998 20.9103 17.2944 20.9285Z" fill="#C17528"/>
<path d="M16.1796 21.096L15.9787 21.0994C15.8707 21.1011 15.8733 21.25 15.9812 21.248L16.1823 21.2447C16.2907 21.2428 16.288 21.0943 16.1796 21.096Z" fill="#C17528"/>
<path d="M18.6335 20.9539C18.6201 20.9667 18.6047 20.9797 18.5958 20.9958C18.5792 21.027 18.5822 21.0604 18.6105 21.0855C18.6337 21.1068 18.6636 21.1099 18.6952 21.1099C18.7532 21.1092 18.7785 21.0668 18.7738 21.027C18.7957 20.9626 18.698 20.8942 18.6335 20.9539Z" fill="#C17528"/>
<path d="M15.6368 21.7708C15.6313 21.6777 15.4671 21.681 15.4697 21.7759C15.4714 21.8348 15.4928 21.8944 15.5671 21.9059C15.6619 21.9196 15.7051 21.8063 15.6368 21.7708Z" fill="#C17528"/>
<path d="M16.5399 21.6045L16.541 21.6641C16.5425 21.7598 16.7102 21.7571 16.7085 21.6609L16.7074 21.6014C16.7062 21.5057 16.5382 21.5086 16.5399 21.6045Z" fill="#C17528"/>
<path d="M17.3305 21.6949C17.2225 21.6969 17.2246 21.8455 17.3331 21.844C17.4409 21.8424 17.4386 21.6932 17.3305 21.6949Z" fill="#C17528"/>
<path d="M27.7001 18.0465C27.5913 18.0483 27.5937 18.197 27.7025 18.1951C27.8105 18.1934 27.8079 18.0446 27.7001 18.0465Z" fill="#C17528"/>
<path d="M3.73109 18.6511L3.69734 18.6517C3.58922 18.6535 3.5916 18.8022 3.69971 18.8005L3.73334 18.7997C3.84145 18.798 3.83893 18.6494 3.73109 18.6511Z" fill="#DC9656"/>
<path d="M4.86608 19.3307L4.86642 19.3607C4.86799 19.4567 5.03561 19.4536 5.03401 19.3581L5.03365 19.3283C5.0321 19.2322 4.86435 19.2351 4.86608 19.3307Z" fill="#DC9656"/>
<path d="M5.7254 19.5125C5.68341 19.453 5.55719 19.4955 5.57637 19.5794C5.59118 19.6447 5.659 19.6618 5.72548 19.6612C5.83269 19.6605 5.83087 19.5145 5.7254 19.5125Z" fill="#DC9656"/>
<path d="M6.41456 19.9334C6.41795 19.8937 6.3915 19.852 6.33344 19.8537C6.302 19.8543 6.27214 19.8583 6.24942 19.8802C6.22248 19.9068 6.22034 19.9403 6.23797 19.9706C6.24689 19.9868 6.26277 19.9994 6.27682 20.0114C6.34332 20.0692 6.43856 19.9973 6.41456 19.9334Z" fill="#DC9656"/>
<path d="M6.61995 20.0185L6.62093 20.0782C6.62239 20.1738 6.79015 20.1708 6.78841 20.0753L6.78743 20.0155C6.78598 19.9198 6.61838 19.9226 6.61995 20.0185Z" fill="#DC9656"/>
<path d="M7.14613 19.8318C7.10552 19.876 7.09017 19.9178 7.0903 19.975C7.09118 20.071 7.2588 20.0681 7.25802 19.9724C7.25789 19.9577 7.25551 19.9468 7.26631 19.9354C7.33428 19.8614 7.2147 19.7572 7.14613 19.8318Z" fill="#DC9656"/>
<path d="M7.55533 20.2439C7.5543 20.2448 7.55173 20.2448 7.54899 20.2451C7.53547 20.2318 7.51547 20.2228 7.48892 20.2232L7.44637 20.224C7.33821 20.2262 7.34075 20.3746 7.449 20.3729L7.46555 20.3724C7.53506 20.402 7.61105 20.395 7.67551 20.3474C7.7586 20.2855 7.6375 20.1832 7.55533 20.2439Z" fill="#DC9656"/>
<path d="M7.92659 19.9326L7.92909 20.0815C7.93053 20.1773 8.09815 20.1744 8.09672 20.0785L8.09408 19.9297C8.09251 19.8337 7.92489 19.8367 7.92659 19.9326Z" fill="#DC9656"/>
<path d="M8.52382 20.5612C8.5033 20.5607 8.50807 20.5648 8.50693 20.5463C8.50017 20.4509 8.33246 20.4534 8.33932 20.5492C8.34625 20.6486 8.41421 20.7067 8.52632 20.71C8.63459 20.7125 8.63166 20.5639 8.52382 20.5612Z" fill="#DC9656"/>
<path d="M8.92619 20.4996C8.81799 20.5008 8.82059 20.65 8.9287 20.6483C9.03682 20.6465 9.03433 20.4976 8.92619 20.4996Z" fill="#DC9656"/>
<path d="M9.51674 20.2392C9.46397 20.2497 9.44181 20.3124 9.42143 20.35C9.4198 20.353 9.42022 20.3557 9.41873 20.3587C9.41798 20.361 9.41784 20.3626 9.41724 20.3647C9.41478 20.3723 9.413 20.3798 9.41327 20.3872C9.4135 20.4213 9.43761 20.4533 9.48191 20.4584C9.48586 20.4596 9.48959 20.4602 9.49375 20.4606C9.49442 20.4607 9.49496 20.4607 9.49576 20.4608C9.49643 20.4609 9.49683 20.4609 9.49742 20.4604C9.51871 20.4613 9.53896 20.4545 9.55474 20.4374C9.55549 20.4365 9.5564 20.4355 9.5573 20.4345C9.56078 20.4305 9.56469 20.4278 9.56732 20.4228C9.56858 20.4208 9.56942 20.419 9.57069 20.417C9.5873 20.4085 9.60138 20.3952 9.60873 20.3742C9.61607 20.3533 9.62425 20.3321 9.62421 20.3091C9.62376 20.2582 9.56924 20.2289 9.51674 20.2392Z" fill="#DC9656"/>
<path d="M10.1001 20.5065C10.0795 20.5057 10.0844 20.5101 10.0828 20.4918C10.0763 20.3962 9.90864 20.3986 9.91549 20.4945C9.92255 20.5939 9.99038 20.652 10.1025 20.6552C10.2109 20.6579 10.2079 20.5094 10.1001 20.5065Z" fill="#DC9656"/>
<path d="M10.564 20.6406C10.5446 20.6235 10.5224 20.6091 10.5178 20.5848C10.4996 20.4903 10.3385 20.5333 10.3568 20.627C10.3666 20.6767 10.4081 20.7136 10.4474 20.7478C10.5247 20.8144 10.6415 20.7074 10.564 20.6406Z" fill="#DC9656"/>
<path d="M11.3111 20.6993L11.1769 20.7012C11.0686 20.7033 11.0711 20.852 11.1793 20.8501L11.3135 20.8481C11.4214 20.846 11.4191 20.6974 11.3111 20.6993Z" fill="#DC9656"/>
<path d="M11.9106 20.4795C11.8635 20.4781 11.8229 20.4556 11.7759 20.452C11.6681 20.4441 11.6717 20.5927 11.7782 20.6009C11.7887 20.6016 11.8073 20.6112 11.8178 20.6146C11.8478 20.6255 11.8806 20.6274 11.913 20.6284C12.0211 20.6316 12.0181 20.4832 11.9106 20.4795Z" fill="#DC9656"/>
<path d="M12.6447 20.6982C12.6214 20.6779 12.6032 20.6624 12.6009 20.6322C12.5933 20.5368 12.4257 20.5394 12.4332 20.635C12.4392 20.7061 12.4712 20.7563 12.5278 20.8054C12.6051 20.8722 12.7219 20.765 12.6447 20.6982Z" fill="#DC9656"/>
<path d="M13.122 20.7272C13.0679 20.7279 13.0137 20.7295 12.9628 20.7101C12.8645 20.6729 12.7813 20.8025 12.8804 20.8398C12.9604 20.8702 13.0378 20.8773 13.1245 20.876C13.2324 20.8743 13.2301 20.7257 13.122 20.7272Z" fill="#DC9656"/>
<path d="M14.3849 20.5489C14.3585 20.5222 14.3435 20.4881 14.3162 20.4607C14.245 20.3889 14.1288 20.4969 14.1998 20.5683C14.226 20.5947 14.241 20.6288 14.2681 20.6561C14.3395 20.728 14.4558 20.6204 14.3849 20.5489Z" fill="#DC9656"/>
<path d="M14.9079 20.8807C14.8816 20.8331 14.8652 20.781 14.8384 20.7327C14.791 20.6469 14.6475 20.7249 14.695 20.8106C14.7216 20.8583 14.738 20.9104 14.7647 20.9582C14.812 21.0441 14.9556 20.9663 14.9079 20.8807Z" fill="#DC9656"/>
<path d="M15.2312 20.8215C15.1658 20.855 15.1804 20.9624 15.2728 20.9601C15.348 20.958 15.3887 20.9209 15.3882 20.8539C15.3878 20.7719 15.2661 20.7625 15.2312 20.8215Z" fill="#DC9656"/>
<path d="M16.2264 20.3425C16.2228 20.3393 16.2198 20.3371 16.2173 20.3357C16.2144 20.2402 16.0467 20.2426 16.0498 20.3389C16.0509 20.387 16.0715 20.4168 16.1096 20.4497C16.1869 20.5166 16.3036 20.4093 16.2264 20.3425Z" fill="#DC9656"/>
<path d="M16.5745 20.5807L16.5411 20.5814C16.433 20.5835 16.4352 20.7321 16.5437 20.7303L16.5769 20.7299C16.6849 20.7279 16.6822 20.579 16.5745 20.5807Z" fill="#DC9656"/>
<path d="M17.0084 20.4822L16.9414 20.4834C16.8331 20.4853 16.8352 20.6342 16.9437 20.632L17.011 20.6314C17.1188 20.6295 17.1164 20.4806 17.0084 20.4822Z" fill="#DC9656"/>
<path d="M17.7392 20.0213C17.6727 20.023 17.6055 20.0425 17.5927 20.1083C17.5764 20.1927 17.7041 20.2303 17.7439 20.1699C17.8487 20.1646 17.8462 20.0186 17.7392 20.0213Z" fill="#DC9656"/>
<path d="M18.1412 20.5146C18.1032 20.4787 18.0769 20.4338 18.0387 20.3974C17.965 20.3275 17.8483 20.4349 17.9219 20.5048C17.9603 20.5408 17.986 20.5855 18.0245 20.622C18.0985 20.6921 18.2146 20.5841 18.1412 20.5146Z" fill="#DC9656"/>
<path d="M18.2541 20.7886C18.1464 20.7902 18.1485 20.9393 18.2567 20.9373C18.3647 20.9356 18.3622 20.7867 18.2541 20.7886Z" fill="#DC9656"/>
<path d="M19.1954 20.4089C19.1373 20.462 19.0789 20.5146 18.9998 20.5416C18.8991 20.5761 18.9453 20.7189 19.0466 20.6847C19.155 20.6471 19.2358 20.5853 19.3153 20.512C19.391 20.4431 19.2709 20.3399 19.1954 20.4089Z" fill="#DC9656"/>
<path d="M19.8548 19.8789C19.8171 19.821 19.6961 19.8342 19.6982 19.9164C19.7002 19.983 19.7419 20.019 19.8172 20.0188C19.91 20.0182 19.9208 19.9098 19.8548 19.8789Z" fill="#DC9656"/>
<path d="M20.1712 20.1166C20.1636 20.0212 19.9959 20.0236 20.0035 20.1196C20.0075 20.1713 20.0357 20.2175 20.0396 20.2679C20.0469 20.3633 20.2143 20.3606 20.207 20.265C20.2031 20.2135 20.1754 20.1671 20.1712 20.1166Z" fill="#DC9656"/>
<path d="M20.3438 20.4329C20.3436 20.4261 20.3448 20.4193 20.3448 20.414C20.3425 20.3181 20.1749 20.3211 20.1766 20.4169C20.1786 20.5101 20.2161 20.5753 20.3301 20.5782C20.4326 20.5808 20.4338 20.4502 20.3438 20.4329Z" fill="#DC9656"/>
<path d="M20.9028 20.2309C20.8809 20.2513 20.8586 20.2712 20.8371 20.2916C20.7612 20.3605 20.8818 20.4642 20.9574 20.3946C20.9788 20.3745 21.0014 20.3541 21.023 20.3342C21.0985 20.2648 20.9786 20.1618 20.9028 20.2309Z" fill="#DC9656"/>
<path d="M21.6813 19.873C21.6459 19.8691 21.6162 19.849 21.5806 19.845C21.535 19.8397 21.4908 19.8554 21.4776 19.8987C21.4675 19.9344 21.4927 19.984 21.5381 19.9891C21.5735 19.9931 21.6034 20.0129 21.6393 20.0174C21.6847 20.0224 21.7291 20.0066 21.7415 19.9634C21.7518 19.9279 21.7269 19.8784 21.6813 19.873Z" fill="#DC9656"/>
<path d="M22.0924 20.1816C22.0754 20.1654 22.0515 20.139 22.0489 20.116C22.0367 20.0213 21.8691 20.0233 21.8812 20.1188C21.8893 20.1841 21.9254 20.2413 21.9753 20.2889C22.0496 20.3589 22.1658 20.251 22.0924 20.1816Z" fill="#DC9656"/>
<path d="M22.44 20.0276C22.4277 20.0375 22.415 20.0358 22.3992 20.0364C22.2914 20.039 22.2935 20.1875 22.4015 20.185C22.466 20.1834 22.5125 20.1686 22.5607 20.1313C22.6425 20.0675 22.5217 19.9648 22.44 20.0276Z" fill="#DC9656"/>
<path d="M23.5889 19.323C23.5499 19.29 23.5163 19.2731 23.4613 19.2735C23.3531 19.2743 23.3558 19.423 23.4639 19.4224C23.4658 19.4243 23.4677 19.4269 23.4718 19.4306C23.5495 19.4963 23.6669 19.3893 23.5889 19.323Z" fill="#DC9656"/>
<path d="M23.6362 19.7539C23.5612 19.726 23.4748 19.8167 23.5453 19.8757C23.6084 19.9291 23.6696 19.9279 23.731 19.8729C23.7993 19.8114 23.7104 19.7235 23.6362 19.7539Z" fill="#DC9656"/>
<path d="M24.0941 19.5429C24.0628 19.5568 24.0366 19.5634 24.0026 19.5638C23.8946 19.5659 23.8964 19.715 24.005 19.7127C24.0688 19.7116 24.1231 19.6948 24.1807 19.6701C24.2769 19.6275 24.1904 19.5008 24.0941 19.5429Z" fill="#DC9656"/>
<path d="M24.8677 19.1904C24.8208 19.1892 24.7801 19.1668 24.7331 19.163C24.625 19.155 24.6287 19.3041 24.7355 19.3119C24.7455 19.3124 24.7646 19.3223 24.7745 19.3259C24.805 19.336 24.838 19.3384 24.8703 19.3393C24.9778 19.3429 24.9751 19.194 24.8677 19.1904Z" fill="#DC9656"/>
<path d="M25.3047 19.2133C25.2765 19.2115 25.2468 19.1636 25.2287 19.147C25.1536 19.0779 25.0374 19.1853 25.1119 19.2544C25.1717 19.31 25.2144 19.3561 25.3072 19.3622C25.4149 19.3692 25.4116 19.2201 25.3047 19.2133Z" fill="#DC9656"/>
<path d="M25.8695 18.9384L25.7688 18.9404C25.6608 18.9419 25.6632 19.0908 25.7715 19.089L25.8716 19.0876C25.9801 19.0857 25.9777 18.9366 25.8695 18.9384Z" fill="#DC9656"/>
<path d="M26.2011 18.7264C26.1088 18.7271 26.0979 18.8357 26.164 18.8664C26.2013 18.9241 26.323 18.9108 26.3206 18.8285C26.3188 18.7618 26.2765 18.7262 26.2011 18.7264Z" fill="#DC9656"/>
<path d="M26.5647 18.4197L26.4984 18.4212C26.3897 18.4228 26.3918 18.5717 26.5 18.5697L26.5674 18.5687C26.6754 18.5668 26.6727 18.4179 26.5647 18.4197Z" fill="#DC9656"/>
<path d="M26.7958 18.1168C26.6869 18.1184 26.6897 18.2676 26.7979 18.2654C26.9059 18.2638 26.9038 18.1151 26.7958 18.1168Z" fill="#DC9656"/>
<path d="M27.1272 17.8759L27.0269 17.8773C26.9186 17.8794 26.921 18.028 27.0295 18.0264L27.1299 18.0247C27.2379 18.0228 27.2352 17.8741 27.1272 17.8759Z" fill="#DC9656"/>
<path d="M27.5536 13.337C27.4458 8.83128 21.5822 5.31614 14.4561 5.48547C7.33035 5.6551 1.64027 9.44505 1.74734 13.951C1.79453 15.9299 7.60959 17.3964 14.7357 17.2269C21.8616 17.0574 27.6001 15.3162 27.5536 13.337Z" fill="url(#paint2_linear_6944_16654)"/>
<path d="M27.4845 12.6198C27.4559 12.6449 27.4222 12.665 27.3854 12.6787C27.2661 12.885 27.0757 13.0391 26.807 13.1068C26.5107 13.1817 26.1822 13.0928 25.9608 13.1732C25.4417 13.3619 24.9761 13.0992 24.5284 13.5288C24.295 13.7528 24.0303 14.1261 23.722 14.2706C23.6535 14.3026 23.5873 14.3225 23.5229 14.3329C23.3949 14.3935 23.2292 14.3763 23.1247 14.2887C23.0711 14.2711 23.0167 14.2505 22.9597 14.227C22.844 14.1779 22.659 13.9969 22.5211 14.1165C22.4162 14.2075 22.3605 14.2484 22.2274 14.3038C21.9452 14.4212 21.7543 14.2439 21.4984 14.2422C21.4668 14.2513 21.4336 14.2537 21.4002 14.2518C21.3407 14.2624 21.2771 14.283 21.2072 14.3211C20.8474 14.5176 20.5416 14.8412 20.1596 14.9999C19.943 15.0898 19.7098 15.1532 19.4739 15.1659C19.3955 15.1922 19.3122 15.1885 19.2384 15.1599C19.1534 15.1509 19.068 15.1357 18.9841 15.1095C18.5974 14.9904 18.2235 14.7045 17.8142 14.8122C17.5745 14.8751 17.3251 14.9381 17.0864 14.8941C16.9509 15.057 16.6948 15.0561 16.5569 14.9444C16.4587 14.9601 16.3586 14.9729 16.2539 14.9812C16.2492 14.9859 16.2452 14.9904 16.2405 14.9951C16.1359 15.0996 15.9774 15.1055 15.8523 15.0525C15.8503 15.0533 15.8489 15.0541 15.8467 15.0549C15.7943 15.0966 15.7308 15.1178 15.6652 15.1218C15.3098 15.2189 14.8554 15.2555 14.5301 15.0572C14.1457 14.823 14.1898 15.03 13.8556 15.1903C13.5662 15.3288 13.2726 15.2801 12.9684 15.2862C12.6362 15.4412 12.2749 15.5915 11.9287 15.584C11.8538 15.5826 11.7728 15.5744 11.6923 15.5594C11.5604 15.572 11.4235 15.5284 11.353 15.4413C11.2091 15.3584 11.1054 15.2354 11.1007 15.0612C11.0982 14.9792 11.102 14.9027 11.122 14.8237C10.9756 14.9232 10.828 14.9437 10.6431 14.9455C10.1835 14.9503 9.62873 14.7512 9.32763 14.442C9.30934 14.423 9.28341 14.4134 9.25337 14.4092C9.09771 14.5035 8.99844 14.5273 8.82559 14.5291C8.57153 14.6423 8.28736 14.7937 8.11642 14.7996C7.93963 14.8056 7.77008 14.6706 7.77415 14.5099C7.7741 14.5071 7.77478 14.5042 7.77509 14.5015C7.74719 14.4344 7.72197 14.3591 7.69428 14.2843C7.60914 14.3134 7.52551 14.3448 7.44115 14.3754C7.393 14.3929 7.34534 14.4093 7.29714 14.4242C6.73265 14.8408 6.16484 14.4901 5.79633 14.0538C5.67796 13.9689 5.55903 13.8852 5.43221 13.8169C5.31741 13.7549 5.20125 13.7151 5.08412 13.6892C5.05919 13.7002 5.03433 13.7104 5.01053 13.7234C4.83661 13.8193 4.60558 13.7627 4.44611 13.65C4.17051 13.6579 3.89084 13.6765 3.60943 13.6213C3.37605 13.5755 3.22917 13.5061 3.12136 13.4152C3.03029 13.4541 2.92254 13.4751 2.78509 13.4673C2.55218 13.4543 2.42072 13.301 2.45304 13.0983C2.50476 12.7717 2.41184 12.651 2.12976 12.5128C2.06664 12.4818 1.99558 12.4323 1.94997 12.3784C1.8054 12.8901 1.73409 13.4168 1.74677 13.9538C1.79396 15.9328 7.60902 17.3993 14.7352 17.2298C21.861 17.0603 27.5995 15.319 27.553 13.3399C27.5475 13.097 27.523 12.8568 27.4845 12.6198Z" fill="url(#paint3_linear_6944_16654)"/>
<path d="M14.2425 16.2553C14.143 15.7119 13.5724 16.6184 12.6543 15.9061C12.3163 15.6439 12.2234 16.7942 10.806 16.2181C10.6868 15.6554 10.0468 16.4643 9.43392 15.8126C9.01095 15.7693 8.62464 16.0372 8.2269 15.9818C7.9158 15.9383 7.96224 15.3546 7.67424 15.4293C6.00033 15.8614 7.46098 15.3992 6.43922 15.2051C6.03752 15.7163 5.54344 14.686 5.41509 15.4037C4.6496 15.1836 5.12844 14.6364 4.37147 14.7735C3.75814 15.1849 3.75573 14.1533 3.59564 14.0855C3.29587 13.9577 3.74916 14.8083 2.79471 14.4142C2.58386 14.327 2.69529 13.5235 2.38852 13.7884C2.12965 14.0119 1.94549 13.3378 1.84965 13.0982C1.81073 13.3777 1.79397 13.6611 1.80093 13.9471C1.848 15.9261 7.663 17.3925 14.789 17.223C21.9154 17.0534 27.6539 15.3121 27.6069 13.3332C27.6001 13.0472 27.5698 12.765 27.5176 12.4875C27.2644 13.6337 26.5914 12.9352 26.6637 13.7273C26.711 14.2493 25.828 14.3625 25.3705 13.9367C24.996 14.1236 25.3217 14.7855 24.8588 14.9811C24.0618 15.3174 24.1335 14.5418 23.3985 15.1745C23.1463 15.3915 22.1026 14.8267 22.0623 15.0476C22.4603 16.0305 21.0494 15.171 20.71 15.8932C20.6113 16.1037 20.119 15.6354 19.8335 15.7953C18.7213 16.4168 19.6983 15.203 18.75 15.9402C18.5712 16.0788 17.4754 15.8811 17.4817 16.1489C17.4926 16.6066 17.099 16.2079 16.3617 15.9375C15.1733 15.7668 16.7378 16.5671 14.2425 16.2553Z" fill="#F3BA60"/>
<path opacity="0.5" d="M14.8212 16.9451C14.3022 17.1902 13.5386 16.7177 13.072 16.9272C12.8229 17.0388 12.4962 16.8017 12.2235 16.7932C11.8821 16.7821 11.6757 16.9074 11.3449 16.889C11.0108 16.8703 10.5651 16.6447 10.2766 16.7755C9.96973 16.9144 9.32941 16.7419 9.00164 16.7064C8.66021 16.6694 8.55053 16.5093 8.22667 16.4641C7.90075 16.4189 7.56796 16.5431 7.26106 16.4896C6.97421 16.4399 6.7645 16.3261 6.49545 16.2698C6.27491 16.2238 6.0932 16.2949 5.88563 16.2447C5.62517 16.1815 5.16179 16.0195 4.92262 15.9501C4.73729 15.8966 4.69843 15.7438 4.16364 15.5332C3.90298 15.4303 3.46854 15.586 3.11771 15.2833C2.96886 15.1546 2.8951 14.9359 2.74629 14.8383C2.55603 14.7131 2.321 14.7594 2.1853 14.626C1.88936 14.3352 1.79892 13.8497 1.79134 13.5266C1.79134 13.5266 1.79134 13.5266 1.79134 13.5263C1.78792 13.3838 1.79052 13.242 1.79865 13.1014C1.79824 13.1002 1.79728 13.0992 1.79704 13.0981C1.75824 13.3779 1.74129 13.6612 1.74819 13.9471C1.79526 15.9261 7.61033 17.3926 14.7365 17.2231C21.8626 17.0536 27.6011 15.3122 27.5543 13.3332C27.5535 13.3034 27.5514 13.2736 27.5504 13.2439C27.4592 13.5439 27.3681 13.854 27.0305 14.1344C26.8801 14.2596 26.5763 14.3643 26.3811 14.484C26.2284 14.5779 26.0861 14.7856 25.908 14.8756C25.7112 14.9747 25.4759 14.9559 25.2497 15.05C24.8401 15.2205 24.433 15.4858 23.9358 15.637C23.6675 15.7187 23.3384 15.6935 23.047 15.7689C22.8565 15.8182 22.3959 15.7728 22.4617 15.9119C22.5682 16.138 21.9016 16.1316 21.6182 16.1883C21.3189 16.2478 20.8476 16.0003 20.7139 16.2595C20.5736 16.5308 20.1914 16.4639 19.887 16.5071C19.6826 16.5364 19.4075 16.4553 19.1979 16.4814C18.6531 16.5497 18.2131 16.7506 17.6364 16.7988C17.4243 16.8167 17.1148 16.8413 16.8988 16.856C16.5313 16.8817 16.0632 16.5188 15.8443 16.6628C15.5846 16.8337 15.1308 16.7992 14.8212 16.9451Z" fill="#CA5C1D"/>
<path d="M16.9631 7.67962C16.8203 7.6831 16.703 7.70609 16.709 7.95668C16.7145 8.201 16.9593 8.53081 16.9699 8.54465L16.9841 8.56435L16.998 8.54399C17.0077 8.52957 17.2358 8.1886 17.2301 7.94435C17.2241 7.69376 17.1056 7.6762 16.9631 7.67962Z" fill="#CF6538"/>
<path d="M15.035 8.3456C14.9703 8.31315 14.9067 8.28432 14.8425 8.28585C14.7653 8.28769 14.7009 8.3329 14.6397 8.42854C14.5173 8.62032 14.5883 9.00131 14.5915 9.01717L14.5949 9.0352L14.6137 9.0286C14.6317 9.02253 15.0367 8.87951 15.1589 8.68755C15.2839 8.49121 15.1769 8.41652 15.035 8.3456Z" fill="#CF6538"/>
<path d="M23.0666 10.9395C23.0014 10.907 22.9383 10.8779 22.8739 10.8795C22.7964 10.8815 22.7321 10.9267 22.6711 11.0222C22.5489 11.2139 22.6193 11.5951 22.6227 11.611L22.6262 11.6291L22.6455 11.6222C22.6623 11.6166 23.0676 11.4733 23.1897 11.2817C23.3152 11.085 23.2082 11.0101 23.0666 10.9395Z" fill="#CF6538"/>
<path d="M10.9799 10.5633C10.9324 10.5644 10.8803 10.5773 10.8352 10.5891C10.7478 10.612 10.6659 10.6379 10.6274 10.7002C10.5977 10.748 10.5969 10.8129 10.6254 10.8981C10.6941 11.1087 11.0515 11.3279 11.0664 11.3372L11.0832 11.3476L11.0913 11.3305C11.0988 11.3156 11.2676 10.9584 11.1987 10.7477C11.156 10.6176 11.0887 10.5608 10.9799 10.5633Z" fill="#CF6538"/>
<path d="M17.6632 10.5973L17.6718 10.5803C17.6788 10.5652 17.848 10.2085 17.7788 9.99774C17.7365 9.86761 17.6687 9.81081 17.56 9.81335C17.5124 9.81447 17.4603 9.82732 17.4156 9.83924C17.3281 9.86205 17.2459 9.88784 17.2071 9.95015C17.1777 9.99792 17.1771 10.0626 17.2054 10.148C17.2744 10.3587 17.6313 10.5781 17.6463 10.5872L17.6632 10.5973Z" fill="#CF6538"/>
<path d="M13.2073 11.3399C13.1825 11.3406 13.1564 11.3439 13.1313 11.3479C13.007 11.3677 12.9071 11.4021 12.95 11.6207C12.9909 11.8336 13.2532 12.0927 13.2642 12.1037L13.282 12.1211L13.2922 12.0992C13.2985 12.0856 13.4479 11.7619 13.4065 11.5488C13.3776 11.3998 13.3178 11.3375 13.2073 11.3399Z" fill="#CF6538"/>
<path d="M5.87397 9.76966L5.88413 9.74765C5.89051 9.73413 6.03993 9.41029 5.99886 9.19721C5.96974 9.04809 5.91013 8.9856 5.79963 8.98826C5.77438 8.98887 5.7484 8.99225 5.72375 8.99618C5.59889 9.01601 5.4991 9.05034 5.54171 9.26927C5.58272 9.48194 5.84542 9.7411 5.8564 9.75205L5.87397 9.76966Z" fill="#CF6538"/>
<path d="M15.4654 6.93957L15.4831 6.95712L15.4932 6.93547C15.5 6.92159 15.6496 6.59781 15.608 6.38484C15.5788 6.23573 15.519 6.17318 15.4087 6.1756C15.3831 6.17639 15.3572 6.17989 15.3328 6.18382C15.208 6.20365 15.1081 6.23804 15.1512 6.45673C15.1922 6.6697 15.4545 6.92874 15.4654 6.93957Z" fill="#CF6538"/>
<path d="M21.7052 8.61325C21.6806 8.61368 21.6542 8.61743 21.6297 8.62112C21.505 8.64118 21.4053 8.67545 21.4479 8.89439C21.4891 9.10681 21.7515 9.36627 21.7621 9.3771L21.7796 9.39447L21.7902 9.37271C21.7971 9.35876 21.946 9.03516 21.9051 8.82202C21.8758 8.67284 21.8158 8.61053 21.7052 8.61325Z" fill="#CF6538"/>
<path d="M12.9088 7.80661C12.8795 7.65756 12.8199 7.59495 12.7092 7.59736C12.6843 7.5981 12.6579 7.60172 12.6337 7.60541C12.509 7.6256 12.4092 7.65963 12.4519 7.87868C12.493 8.09147 12.7554 8.35063 12.7666 8.36146L12.7839 8.37889L12.7945 8.357C12.8005 8.34347 12.95 8.01976 12.9088 7.80661Z" fill="#CF6538"/>
<path d="M9.69723 12.3677C9.63903 12.3531 9.59153 12.3464 9.5511 12.3473C9.4306 12.3501 9.39752 12.4214 9.37175 12.5006C9.33718 12.6091 9.32828 12.7035 9.5687 12.7636C9.62437 12.7777 9.69296 12.7836 9.7728 12.7818C9.97789 12.7768 10.1948 12.7205 10.1971 12.72L10.2225 12.7134L10.2048 12.6959C10.1937 12.6845 9.93085 12.4256 9.69723 12.3677Z" fill="#CF6538"/>
<path d="M20.7753 7.01611C20.7173 7.00134 20.6696 6.99475 20.6291 6.99566C20.5087 6.99857 20.4758 7.06982 20.4503 7.14875C20.4153 7.25741 20.4062 7.35207 20.6468 7.41221C20.7025 7.42619 20.7711 7.43251 20.8509 7.43032C21.0562 7.42554 21.2729 7.36919 21.275 7.36859L21.3005 7.36153L21.2828 7.34411C21.2718 7.33321 21.0088 7.07447 20.7753 7.01611Z" fill="#CF6538"/>
<path d="M10.9549 9.04133L10.9372 9.02378C10.9263 9.01283 10.663 8.75396 10.4292 8.69584C10.3717 8.68101 10.3236 8.6743 10.2836 8.67527C10.1633 8.67813 10.13 8.74943 10.1042 8.82848C10.0695 8.93702 10.0606 9.03175 10.3014 9.09195C10.3567 9.1058 10.4258 9.11188 10.5054 9.11006C10.7105 9.1051 10.9273 9.04868 10.9294 9.04808L10.9549 9.04133Z" fill="#CF6538"/>
<path d="M15.6232 10.7423C15.5651 10.7278 15.5174 10.7212 15.4772 10.7221C15.3568 10.725 15.3238 10.7959 15.2986 10.8749C15.2802 10.9305 15.2667 10.984 15.2971 11.0324C15.3256 11.0781 15.3886 11.1117 15.4945 11.1386C15.5504 11.1521 15.6188 11.1584 15.6988 11.1566C15.904 11.1517 16.1206 11.0951 16.123 11.0946L16.1482 11.0878L16.1309 11.0704C16.1197 11.0594 15.8568 10.8007 15.6232 10.7423Z" fill="#CF6538"/>
<path d="M6.14667 11.1721C6.08854 11.1575 6.04085 11.1508 6.0006 11.1517C5.88004 11.1547 5.84702 11.2259 5.8218 11.3047C5.80373 11.3599 5.79024 11.4135 5.82058 11.4623C5.84918 11.5077 5.91205 11.5415 6.01821 11.5681C6.07375 11.5819 6.14222 11.5882 6.22212 11.5862C6.42727 11.5814 6.64416 11.5249 6.64621 11.5242L6.67166 11.5176L6.65403 11.5002C6.64287 11.4892 6.38023 11.2301 6.14667 11.1721Z" fill="#CF6538"/>
<path d="M8.19523 9.93776C8.13727 9.923 8.08989 9.91653 8.0494 9.91731C7.92926 9.92023 7.89594 9.99142 7.87071 10.0705C7.85374 10.1225 7.84039 10.1729 7.86465 10.2196C7.89064 10.2697 7.95507 10.3057 8.06706 10.334C8.12291 10.3479 8.19162 10.3537 8.27097 10.3519C8.47583 10.3471 8.69332 10.2906 8.69531 10.2901L8.72088 10.2834L8.70349 10.2659C8.69215 10.2545 8.42915 9.99595 8.19523 9.93776Z" fill="#CF6538"/>
<path d="M13.2773 9.82065C13.2193 9.80588 13.1718 9.79905 13.1314 9.80008C13.0109 9.80318 12.9784 9.87425 12.9529 9.9533C12.9348 10.0082 12.9212 10.062 12.9514 10.1107C12.9798 10.1563 13.0431 10.1897 13.1491 10.2163C13.2048 10.2304 13.2731 10.2366 13.3535 10.2344C13.558 10.2298 13.7751 10.1733 13.7773 10.1727L13.8028 10.1661L13.7852 10.1487C13.7738 10.1375 13.5109 9.87871 13.2773 9.82065Z" fill="#CF6538"/>
<path d="M3.98647 10.2423C3.9284 10.2275 3.88071 10.2211 3.84035 10.2221C3.72008 10.2251 3.68688 10.2959 3.66148 10.3749C3.64359 10.4302 3.62998 10.4838 3.66032 10.5324C3.68892 10.578 3.75185 10.612 3.85807 10.6384C3.91362 10.6522 3.98227 10.6582 4.06198 10.6565C4.26696 10.6516 4.48402 10.5952 4.48626 10.5946L4.51171 10.588L4.49395 10.5706C4.48291 10.5595 4.22003 10.3006 3.98647 10.2423Z" fill="#CF6538"/>
<path d="M23.5058 8.75803C23.4479 8.74338 23.4004 8.73666 23.36 8.73782C23.2394 8.74055 23.2064 8.81186 23.1812 8.89061C23.1629 8.94608 23.1497 8.99964 23.1799 9.04815C23.2084 9.09399 23.2714 9.12764 23.3778 9.15419C23.4334 9.16804 23.5021 9.174 23.5818 9.17218C23.7865 9.1674 24.0035 9.11104 24.0059 9.11045L24.0312 9.10381L24.0135 9.08638C24.0026 9.07513 23.7395 8.81615 23.5058 8.75803Z" fill="#CF6538"/>
<path d="M10.2491 6.88048C10.3041 6.89457 10.3727 6.90077 10.4532 6.89883C10.6578 6.89399 10.8746 6.83769 10.8769 6.83686L10.9023 6.83016L10.8846 6.81261C10.8737 6.80178 10.6106 6.54297 10.3771 6.48443C10.319 6.47002 10.2711 6.46337 10.2308 6.46434C10.1105 6.4672 10.0779 6.53833 10.0522 6.61732C10.0341 6.67242 10.0207 6.72592 10.051 6.77467C10.0796 6.82034 10.1422 6.85399 10.2491 6.88048Z" fill="#CF6538"/>
<path d="M17.8708 12.1723C17.8126 12.1577 17.7648 12.1511 17.7247 12.152C17.6044 12.1549 17.5716 12.2259 17.5462 12.3049C17.5112 12.4134 17.5016 12.5082 17.7425 12.5687C17.7978 12.5826 17.8663 12.5886 17.9459 12.5867C18.1516 12.5815 18.3684 12.5248 18.3707 12.5247L18.3961 12.518L18.3784 12.5003C18.3671 12.4895 18.1048 12.2311 17.8708 12.1723Z" fill="#CF6538"/>
<path d="M26.5327 11.3049C26.5215 11.2939 26.259 11.0356 26.0247 10.9769C25.9668 10.9622 25.9193 10.9558 25.8788 10.9569C25.7584 10.9596 25.7258 11.0307 25.7005 11.1097C25.6654 11.2182 25.656 11.3129 25.8969 11.3735C25.9522 11.387 26.0211 11.3931 26.1007 11.3913C26.3059 11.3864 26.5227 11.3298 26.5248 11.3296L26.5504 11.3226L26.5327 11.3049Z" fill="#CF6538"/>
<path d="M12.8478 6.81875C12.9035 6.83248 12.9721 6.83868 13.0516 6.83698C13.2571 6.83196 13.4741 6.77524 13.4759 6.77465L13.5015 6.76819L13.4838 6.75064C13.4731 6.73969 13.2102 6.48107 12.976 6.42258C12.9181 6.40794 12.8702 6.4011 12.8299 6.40213C12.7095 6.40499 12.6768 6.47618 12.6514 6.55475C12.6165 6.66334 12.6073 6.75837 12.8478 6.81875Z" fill="#CF6538"/>
<path d="M7.97353 8.42437L7.99708 8.41303C8.01006 8.40676 8.32163 8.2561 8.43002 8.08662C8.47934 8.00917 8.49567 7.95165 8.48171 7.9058C8.46632 7.85706 8.4192 7.83047 8.3684 7.80525C8.32914 7.78574 8.28729 7.76676 8.24355 7.76766C8.17987 7.76925 8.12329 7.81256 8.06458 7.90412C7.95649 8.07361 7.97158 8.38761 7.97195 8.40081L7.97353 8.42437Z" fill="#CF6538"/>
<path d="M20.8312 10.2507C20.792 10.2311 20.7499 10.2122 20.706 10.2132C20.6426 10.2146 20.5858 10.2581 20.5274 10.3495C20.4194 10.5189 20.4341 10.833 20.435 10.8462L20.4364 10.8697L20.4597 10.8586C20.4728 10.8523 20.7844 10.7015 20.8929 10.5319C20.9422 10.4545 20.958 10.3971 20.9441 10.3514C20.9288 10.3027 20.882 10.2761 20.8312 10.2507Z" fill="#CF6538"/>
<path d="M18.3725 6.5163C18.3337 6.49673 18.2918 6.47763 18.2477 6.47853C18.1842 6.48006 18.127 6.52337 18.0686 6.61505C17.9608 6.78442 17.9756 7.09842 17.9762 7.11162L17.9774 7.13524L18.0009 7.12408C18.0137 7.11775 18.3259 6.96679 18.4343 6.79713C18.4837 6.71981 18.5 6.66228 18.4855 6.61655C18.4702 6.56805 18.4236 6.54152 18.3725 6.5163Z" fill="#CF6538"/>
<path d="M19.5091 8.67249C19.4697 8.65287 19.428 8.63413 19.3842 8.63491C19.3205 8.6365 19.2637 8.67963 19.205 8.77119C19.0969 8.94068 19.112 9.25468 19.1127 9.268L19.1141 9.2915L19.1376 9.28021C19.1506 9.27406 19.4622 9.12311 19.5706 8.95374C19.6201 8.87606 19.6362 8.81866 19.6221 8.77305C19.6068 8.72425 19.5596 8.69753 19.5091 8.67249Z" fill="#CF6538"/>
<path d="M16.9648 7.61726C16.8222 7.62062 16.7046 7.64373 16.7105 7.8945C16.7166 8.13858 16.9615 8.46803 16.9713 8.48211L16.9861 8.5017L16.9998 8.48139C17.0098 8.46679 17.2378 8.12619 17.2324 7.88193C17.2261 7.63122 17.1072 7.61384 16.9648 7.61726Z" fill="#FFCD8B"/>
<path d="M15.037 8.28328C14.9721 8.25095 14.9087 8.22188 14.8445 8.22329C14.767 8.22524 14.703 8.27057 14.6417 8.3661C14.5196 8.55787 14.5902 8.93923 14.5932 8.95533L14.597 8.973L14.6156 8.96633C14.6329 8.96032 15.0385 8.81712 15.1604 8.62564C15.2863 8.4287 15.1787 8.3542 15.037 8.28328Z" fill="#FFCD8B"/>
<path d="M23.0683 10.8771C23.0034 10.8448 22.9399 10.8156 22.8757 10.817C22.7985 10.819 22.7342 10.8642 22.6733 10.9598C22.5506 11.1512 22.6214 11.5327 22.6246 11.5487L22.6282 11.5667L22.6471 11.5599C22.6645 11.5539 23.0697 11.4107 23.1917 11.219C23.3172 11.0224 23.2104 10.9477 23.0683 10.8771Z" fill="#FFCD8B"/>
<path d="M10.9802 10.5008C10.9327 10.502 10.8803 10.5149 10.8352 10.5267C10.748 10.5495 10.6662 10.5752 10.6278 10.6374C10.598 10.6855 10.5972 10.7502 10.6253 10.8355C10.6944 11.0463 11.0515 11.2655 11.0665 11.2745L11.0834 11.285L11.0912 11.268C11.0986 11.2528 11.2678 10.896 11.1989 10.685C11.1564 10.555 11.0887 10.4984 10.9802 10.5008Z" fill="#FFCD8B"/>
<path d="M17.6638 10.5349L17.6715 10.5181C17.6788 10.5029 17.8477 10.146 17.7793 9.93519C17.7364 9.80524 17.669 9.74838 17.5603 9.75092C17.5127 9.75192 17.4606 9.76489 17.4154 9.77657C17.3278 9.79962 17.246 9.82535 17.2077 9.8876C17.1779 9.93555 17.1774 10.0003 17.2053 10.0855C17.2747 10.2963 17.6315 10.5154 17.6466 10.5247L17.6638 10.5349Z" fill="#FFCD8B"/>
<path d="M13.2095 11.2773C13.1842 11.278 13.1582 11.2816 13.1336 11.2853C13.0089 11.3051 12.9089 11.3397 12.9521 11.5585C12.993 11.7713 13.2551 12.0302 13.2663 12.0411L13.2841 12.0587L13.294 12.0369C13.3009 12.0231 13.4502 11.6993 13.4089 11.4862C13.3798 11.3375 13.32 11.2748 13.2095 11.2773Z" fill="#FFCD8B"/>
<path d="M5.87589 9.70725L5.88611 9.68537C5.89261 9.67178 6.04167 9.34782 6.00066 9.13486C5.97178 8.98563 5.91187 8.92313 5.80149 8.92573C5.77624 8.92634 5.75008 8.92997 5.7256 8.93366C5.60075 8.95348 5.5012 8.98799 5.54381 9.20693C5.58482 9.41959 5.84668 9.67857 5.8582 9.6894L5.87589 9.70725Z" fill="#FFCD8B"/>
<path d="M15.4673 6.87721L15.4851 6.8944L15.4957 6.87264C15.5016 6.85905 15.6515 6.53539 15.6099 6.32243C15.5808 6.17301 15.5212 6.11052 15.4107 6.1133C15.3855 6.11391 15.3593 6.11742 15.3348 6.12123C15.21 6.14117 15.1101 6.17544 15.153 6.39438C15.1944 6.60686 15.4561 6.8665 15.4673 6.87721Z" fill="#FFCD8B"/>
<path d="M21.7073 8.55047C21.6826 8.55127 21.6565 8.55483 21.6317 8.5587C21.5069 8.57864 21.4075 8.6128 21.4499 8.83185C21.4911 9.04439 21.7534 9.30374 21.7646 9.31475L21.7822 9.33218L21.7926 9.31035C21.7987 9.2967 21.9486 8.97293 21.9072 8.75984C21.8778 8.61025 21.8182 8.54776 21.7073 8.55047Z" fill="#FFCD8B"/>
<path d="M12.9109 7.7444C12.8814 7.59498 12.8219 7.53261 12.7111 7.53527C12.6861 7.53576 12.66 7.53932 12.6355 7.54319C12.5109 7.5629 12.4113 7.59729 12.4539 7.81635C12.4951 8.02895 12.7568 8.28829 12.7682 8.29888L12.786 8.31667L12.7962 8.29466C12.8025 8.28102 12.9519 7.95718 12.9109 7.7444Z" fill="#FFCD8B"/>
<path d="M9.69921 12.3052C9.64096 12.2904 9.59351 12.2838 9.55296 12.2848C9.43264 12.2876 9.39932 12.3588 9.37374 12.4377C9.33905 12.5463 9.33015 12.641 9.57051 12.701C9.62617 12.7151 9.69495 12.721 9.77478 12.7193C9.98 12.7142 10.1969 12.6578 10.1987 12.6572L10.2243 12.6507L10.2066 12.6331C10.1954 12.6223 9.93253 12.3633 9.69921 12.3052Z" fill="#FFCD8B"/>
<path d="M20.7774 6.95336C20.719 6.93895 20.6716 6.93236 20.6312 6.93327C20.5105 6.93601 20.4776 7.00744 20.452 7.08637C20.4173 7.19478 20.4082 7.28945 20.6488 7.34971C20.7044 7.36368 20.773 7.36976 20.8529 7.36782C21.0581 7.3628 21.2749 7.30668 21.2769 7.30597L21.3025 7.29945L21.2847 7.28196C21.2738 7.27083 21.0109 7.01209 20.7774 6.95336Z" fill="#FFCD8B"/>
<path d="M10.9569 8.97893L10.9393 8.96151C10.9279 8.95043 10.6649 8.69145 10.4313 8.63309C10.3737 8.61832 10.3255 8.61209 10.2851 8.61312C10.165 8.61573 10.1319 8.6868 10.1062 8.76609C10.0718 8.87462 10.0626 8.96953 10.303 9.02943C10.3584 9.04352 10.4274 9.04936 10.5073 9.04742C10.7123 9.04264 10.9295 8.98616 10.9314 8.98569L10.9569 8.97893Z" fill="#FFCD8B"/>
<path d="M15.6234 10.6796C15.5651 10.6653 15.5175 10.6585 15.4774 10.6594C15.3569 10.6623 15.3242 10.7337 15.2981 10.8126C15.2806 10.8678 15.2669 10.9215 15.2971 10.97C15.3258 11.0156 15.3888 11.0493 15.4948 11.0756C15.5505 11.0897 15.6192 11.0957 15.6991 11.0938C15.9039 11.0891 16.1208 11.0326 16.123 11.0322L16.1484 11.0253L16.1303 11.008C16.1198 10.9969 15.857 10.7381 15.6234 10.6796Z" fill="#FFCD8B"/>
<path d="M6.14855 11.1096C6.09035 11.095 6.04273 11.0883 6.00236 11.0893C5.88204 11.0922 5.84914 11.1633 5.82361 11.2424C5.80566 11.2975 5.79206 11.3512 5.82257 11.3998C5.85123 11.4456 5.91368 11.4795 6.02014 11.5057C6.07563 11.5197 6.14422 11.5259 6.22411 11.524C6.42909 11.5191 6.64604 11.4627 6.64809 11.462L6.67366 11.4554L6.65596 11.4378C6.64493 11.4268 6.38223 11.1679 6.14855 11.1096Z" fill="#FFCD8B"/>
<path d="M8.19728 9.87516C8.13933 9.86039 8.09164 9.85392 8.05151 9.85483C7.93095 9.85781 7.89811 9.92875 7.87265 10.0079C7.85573 10.06 7.84238 10.1105 7.86658 10.157C7.89239 10.2074 7.9564 10.2432 8.06893 10.2714C8.12442 10.2851 8.19307 10.2914 8.27273 10.2896C8.478 10.2847 8.69495 10.2281 8.6973 10.2273L8.72275 10.2208L8.70506 10.2032C8.69402 10.1921 8.43108 9.9334 8.19728 9.87516Z" fill="#FFCD8B"/>
<path d="M13.2795 9.75797C13.2213 9.74332 13.1736 9.73673 13.1333 9.7377C13.0131 9.7405 12.9802 9.8118 12.9546 9.89056C12.9366 9.9459 12.9229 9.99958 12.9534 10.0481C12.9819 10.0939 13.0447 10.1273 13.1513 10.1541C13.2065 10.168 13.2755 10.1737 13.3552 10.172C13.5601 10.167 13.7771 10.1107 13.7792 10.11L13.8048 10.1034L13.787 10.086C13.7761 10.0749 13.5129 9.81627 13.2795 9.75797Z" fill="#FFCD8B"/>
<path d="M3.98838 10.1797C3.93037 10.1651 3.8828 10.1585 3.84255 10.1595C3.72211 10.1624 3.68915 10.2334 3.66339 10.3126C3.64568 10.368 3.63207 10.4216 3.66234 10.47C3.691 10.5158 3.75382 10.5495 3.86022 10.5759C3.91558 10.5897 3.98418 10.5959 4.06401 10.5942C4.26911 10.5892 4.48575 10.5329 4.4881 10.5321L4.51368 10.5252L4.49616 10.5077C4.48482 10.4969 4.22212 10.2381 3.98838 10.1797Z" fill="#FFCD8B"/>
<path d="M23.5075 8.69568C23.4497 8.68104 23.4021 8.67432 23.3617 8.67541C23.2412 8.67821 23.2086 8.74916 23.1827 8.82839C23.1647 8.88362 23.1515 8.9373 23.1819 8.98569C23.2101 9.03141 23.2733 9.06506 23.3797 9.09149C23.4348 9.10558 23.5039 9.11166 23.5835 9.10972C23.7883 9.10494 24.0055 9.04846 24.0074 9.04781L24.033 9.04099L24.0154 9.02356C24.0043 9.01279 23.7414 8.75375 23.5075 8.69568Z" fill="#FFCD8B"/>
<path d="M10.2506 6.81814C10.3061 6.83188 10.3747 6.83808 10.4546 6.83625C10.6599 6.83136 10.8769 6.775 10.8787 6.7744L10.9044 6.76771L10.8866 6.75022C10.8754 6.73951 10.6125 6.48076 10.3793 6.42192C10.3215 6.40752 10.2734 6.4008 10.2329 6.40171C10.1127 6.40469 10.0798 6.47564 10.0541 6.55493C10.0363 6.60991 10.0229 6.66341 10.053 6.7124C10.0814 6.75771 10.1442 6.79142 10.2506 6.81814Z" fill="#FFCD8B"/>
<path d="M17.8725 12.11C17.8144 12.0954 17.7666 12.0887 17.7262 12.0897C17.6059 12.0926 17.573 12.1636 17.548 12.2424C17.513 12.3508 17.5036 12.4454 17.7442 12.506C17.7995 12.5199 17.8683 12.5258 17.9479 12.524C18.1532 12.5192 18.3698 12.4627 18.3727 12.4619L18.3981 12.4554L18.3803 12.438C18.369 12.4271 18.1066 12.1688 17.8725 12.11Z" fill="#FFCD8B"/>
<path d="M26.5344 11.2429C26.5234 11.2318 26.2612 10.9734 26.0264 10.915C25.9687 10.9001 25.9211 10.8935 25.8805 10.8944C25.7602 10.8972 25.7276 10.9684 25.7023 11.0471C25.6674 11.1557 25.6581 11.2504 25.8983 11.3112C25.9541 11.3248 26.0226 11.331 26.102 11.3292C26.3074 11.3242 26.5243 11.2676 26.5265 11.2671L26.5521 11.2603L26.5344 11.2429Z" fill="#FFCD8B"/>
<path d="M12.8497 6.75621C12.9051 6.76983 12.974 6.77591 13.0536 6.77396C13.2591 6.76906 13.476 6.71246 13.4781 6.71199L13.5035 6.7056L13.4862 6.68787C13.4751 6.6768 13.2121 6.41853 12.9782 6.35993C12.92 6.34528 12.8722 6.33857 12.8318 6.3396C12.7117 6.34251 12.6787 6.41352 12.6534 6.49233C12.6184 6.60086 12.6092 6.69541 12.8497 6.75621Z" fill="#FFCD8B"/>
<path d="M7.97544 8.36178L7.99916 8.35049C8.0122 8.34434 8.32372 8.19357 8.43259 8.02384C8.48191 7.9464 8.49806 7.88912 8.48356 7.84339C8.4684 7.79452 8.42159 7.76794 8.37073 7.74259C8.33147 7.72309 8.28938 7.70423 8.24564 7.70512C8.18195 7.70672 8.12532 7.74991 8.06703 7.84141C7.95858 8.01108 7.97361 8.32496 7.97428 8.33816L7.97544 8.36178Z" fill="#FFCD8B"/>
<path d="M20.8331 10.1881C20.7938 10.1686 20.7524 10.1495 20.7084 10.1506C20.6446 10.1521 20.5878 10.1955 20.5292 10.287C20.4216 10.4564 20.4365 10.7705 20.4371 10.7836L20.4384 10.8073L20.4618 10.796C20.4751 10.79 20.7866 10.6389 20.895 10.4693C20.9442 10.3919 20.9605 10.3344 20.9463 10.2887C20.931 10.2401 20.8842 10.2133 20.8331 10.1881Z" fill="#FFCD8B"/>
<path d="M18.3742 6.45382C18.3348 6.43437 18.2932 6.41528 18.2487 6.41653C18.1853 6.41783 18.1288 6.46114 18.07 6.55288C17.9624 6.72213 17.9772 7.03613 17.9777 7.04938L17.9794 7.07277L18.0026 7.06172C18.0155 7.05551 18.3274 6.90468 18.4357 6.73525C18.4852 6.65757 18.5013 6.60029 18.4869 6.5545C18.4714 6.50581 18.425 6.47917 18.3742 6.45382Z" fill="#FFCD8B"/>
<path d="M19.5128 8.60997C19.4735 8.59046 19.4318 8.5716 19.3877 8.5725C19.3243 8.57409 19.2675 8.61722 19.2089 8.7089C19.1008 8.87851 19.1159 9.19239 19.1163 9.20571L19.118 9.22903L19.1412 9.21805C19.1545 9.2116 19.466 9.06082 19.5741 8.89134C19.6234 8.81389 19.6398 8.75649 19.6256 8.71094C19.6102 8.6619 19.5631 8.63513 19.5128 8.60997Z" fill="#FFCD8B"/>
<defs>
<radialGradient id="paint0_radial_6944_16654" cx="0" cy="0" r="1" gradientUnits="userSpaceOnUse" gradientTransform="translate(14.4853 14.388) rotate(-2.69218) scale(20.092 17.8351)">
<stop stop-color="#EF9F51"/>
<stop offset="0.4967" stop-color="#EF9D4F"/>
<stop offset="0.6756" stop-color="#ED9649"/>
<stop offset="0.8031" stop-color="#EA8B3F"/>
<stop offset="0.9055" stop-color="#E67A31"/>
<stop offset="0.9928" stop-color="#E1641E"/>
<stop offset="1" stop-color="#E0621C"/>
</radialGradient>
<radialGradient id="paint1_radial_6944_16654" cx="0" cy="0" r="1" gradientUnits="userSpaceOnUse" gradientTransform="translate(14.1964 -0.353499) rotate(-0.945735) scale(26.3808 23.4165)">
<stop offset="0.9147" stop-color="#9B2B3E"/>
<stop offset="0.9249" stop-color="#982C3B"/>
<stop offset="1" stop-color="#813229"/>
</radialGradient>
<linearGradient id="paint2_linear_6944_16654" x1="14.457" y1="5.50605" x2="14.7333" y2="17.1241" gradientUnits="userSpaceOnUse">
<stop stop-color="#EF9F51"/>
<stop offset="1" stop-color="#E0621C"/>
</linearGradient>
<linearGradient id="paint3_linear_6944_16654" x1="14.7718" y1="18.7489" x2="14.5104" y2="7.75775" gradientUnits="userSpaceOnUse">
<stop offset="0.2057" stop-color="#E78427"/>
<stop offset="0.4359" stop-color="#E7862A"/>
<stop offset="0.6209" stop-color="#E88D34"/>
<stop offset="0.7903" stop-color="#EA9945"/>
<stop offset="0.9493" stop-color="#EDA95D"/>
<stop offset="1" stop-color="#EEAF66"/>
</linearGradient>
</defs>
</svg>
