<svg width="290" height="108" viewBox="0 0 290 108" fill="none" xmlns="http://www.w3.org/2000/svg">
<path d="M207.821 41.3987C223.049 38.4604 219.59 40.557 226.048 30.3538C230.941 41.3931 227.826 38.8133 242.459 43.9501C227.231 46.8884 230.691 44.7919 224.233 54.995C219.339 43.9558 222.454 46.5366 207.821 41.3987Z" fill="#FFEEA6"/>
<path d="M240.637 88.2922C259.866 84.5827 255.498 87.229 263.652 74.3452C269.831 88.2847 265.897 85.027 284.375 91.5138C265.146 95.2233 269.515 92.5761 261.36 105.461C255.182 91.5204 259.116 94.7791 240.637 88.2922Z" fill="white"/>
<path d="M72.9264 26.9038C126.235 19.4115 182.398 35.1205 224.082 69.1826" stroke="#FFF3DC" stroke-width="1.5" stroke-miterlimit="10"/>
<path d="M5.03601 28.1351C36.5444 13.1291 71.7569 5.97746 106.623 7.50279" stroke="#FFF3DC" stroke-width="1.5" stroke-miterlimit="10"/>
</svg>
