<svg width="29" height="29" viewBox="0 0 29 29" fill="none" xmlns="http://www.w3.org/2000/svg">
<path d="M15.5207 3.15625C16.8046 3.15967 17.4563 3.16652 18.019 3.1825L18.2404 3.19049C18.4961 3.19962 18.7483 3.21103 19.053 3.22473C20.2674 3.28179 21.096 3.47354 21.823 3.75544C22.5763 4.04533 23.2108 4.43795 23.8454 5.07138C24.426 5.64173 24.8751 6.33193 25.1614 7.09379C25.4433 7.8208 25.635 8.6494 25.6921 9.8649C25.7058 10.1685 25.7172 10.4207 25.7263 10.6775L25.7331 10.8989C25.7503 11.4605 25.7571 12.1121 25.7594 13.3961L25.7605 14.2475V15.7427C25.7633 16.5752 25.7546 17.4076 25.7343 18.2399L25.7274 18.4613C25.7183 18.7181 25.7069 18.9703 25.6932 19.2739C25.6361 20.4894 25.4421 21.3169 25.1614 22.045C24.8751 22.8069 24.426 23.4971 23.8454 24.0674C23.2751 24.648 22.5849 25.0971 21.823 25.3834C21.096 25.6653 20.2674 25.857 19.053 25.9141L18.2404 25.9483L18.019 25.9552C17.4563 25.9711 16.8046 25.9791 15.5207 25.9814L14.6692 25.9825H13.1753C12.3424 25.9855 11.5095 25.9767 10.6769 25.9563L10.4555 25.9495C10.1846 25.9392 9.91369 25.9274 9.64289 25.9141C8.42853 25.857 7.59994 25.6653 6.87178 25.3834C6.11033 25.097 5.42053 24.6479 4.85051 24.0674C4.26952 23.4972 3.82003 22.807 3.53343 22.045C3.25153 21.318 3.05979 20.4894 3.00272 19.2739L2.96848 18.4613L2.96278 18.2399C2.94174 17.4076 2.93222 16.5752 2.93424 15.7427V13.3961C2.93108 12.5637 2.93945 11.7312 2.95935 10.8989L2.96734 10.6775C2.97647 10.4207 2.98788 10.1685 3.00158 9.8649C3.05865 8.6494 3.25039 7.82195 3.53229 7.09379C3.81955 6.33161 4.26984 5.64139 4.85165 5.07138C5.42134 4.49107 6.11074 4.04199 6.87178 3.75544C7.59994 3.47354 8.42739 3.28179 9.64289 3.22473C9.94648 3.21103 10.1999 3.19962 10.4555 3.19049L10.6769 3.18364C11.5092 3.16336 12.3416 3.15461 13.1741 3.15739L15.5207 3.15625ZM14.3474 8.86282C12.8339 8.86282 11.3824 9.46405 10.3122 10.5342C9.24204 11.6044 8.64082 13.0559 8.64082 14.5694C8.64082 16.0829 9.24204 17.5344 10.3122 18.6046C11.3824 19.6747 12.8339 20.276 14.3474 20.276C15.8609 20.276 17.3124 19.6747 18.3825 18.6046C19.4527 17.5344 20.054 16.0829 20.054 14.5694C20.054 13.0559 19.4527 11.6044 18.3825 10.5342C17.3124 9.46405 15.8609 8.86282 14.3474 8.86282ZM14.3474 11.1455C14.797 11.1454 15.2423 11.2339 15.6577 11.4059C16.0732 11.5779 16.4507 11.83 16.7687 12.1479C17.0866 12.4658 17.3389 12.8432 17.5111 13.2586C17.6832 13.674 17.7718 14.1192 17.7719 14.5688C17.772 15.0185 17.6835 15.4637 17.5115 15.8792C17.3395 16.2946 17.0873 16.6721 16.7695 16.9901C16.4516 17.3081 16.0742 17.5604 15.6588 17.7325C15.2434 17.9046 14.7982 17.9933 14.3485 17.9933C13.4404 17.9933 12.5696 17.6326 11.9274 16.9905C11.2853 16.3484 10.9246 15.4775 10.9246 14.5694C10.9246 13.6613 11.2853 12.7904 11.9274 12.1483C12.5696 11.5062 13.4404 11.1455 14.3485 11.1455M20.3404 7.15085C19.9621 7.15085 19.5992 7.30116 19.3316 7.56871C19.0641 7.83625 18.9138 8.19913 18.9138 8.5775C18.9138 8.95587 19.0641 9.31874 19.3316 9.58629C19.5992 9.85383 19.9621 10.0041 20.3404 10.0041C20.7188 10.0041 21.0817 9.85383 21.3492 9.58629C21.6168 9.31874 21.7671 8.95587 21.7671 8.5775C21.7671 8.19913 21.6168 7.83625 21.3492 7.56871C21.0817 7.30116 20.7188 7.15085 20.3404 7.15085Z" fill="#00472B"/>
</svg>
