<svg width="276" height="208" viewBox="0 0 276 208" fill="none" xmlns="http://www.w3.org/2000/svg">
<path d="M4 6.85494C20.364 3.03404 29.5 1.5074 44.5 12.3549C65.5 29.5055 47 69.8418 34 74.855C24.9746 78.3354 19.8176 73.0078 18.5 66.8549C13.5 43.5055 89.5 16.5 119.5 27C148.52 37.1571 156.678 68.0597 154.731 133.284C154.697 134.433 156.346 134.736 156.731 133.653C175.266 81.5107 191.465 52.61 227 14.8549" stroke="black" stroke-width="8" stroke-linecap="round"/>
<path d="M191 17C178 27 174.36 30.2548 169 49" stroke="#00472B" stroke-width="8" stroke-linecap="round"/>
<path d="M224 110C208 112 202 115 195.002 127.28" stroke="black" stroke-width="8" stroke-linecap="round"/>
<path d="M271.015 169.002C250 150.5 212.503 156.998 188.015 161.835" stroke="#00472B" stroke-width="8" stroke-linecap="round"/>
</svg>
