<svg width="29" height="29" viewBox="0 0 29 29" fill="none" xmlns="http://www.w3.org/2000/svg">
<path d="M25.3051 0.875C26.1123 0.875 26.8864 1.19565 27.4572 1.76642C28.0279 2.33719 28.3486 3.11132 28.3486 3.91851V25.2231C28.3486 26.0302 28.0279 26.8044 27.4572 27.3751C26.8864 27.9459 26.1123 28.2666 25.3051 28.2666H4.00054C3.19335 28.2666 2.41922 27.9459 1.84845 27.3751C1.27769 26.8044 0.957031 26.0302 0.957031 25.2231V3.91851C0.957031 3.11132 1.27769 2.33719 1.84845 1.76642C2.41922 1.19565 3.19335 0.875 4.00054 0.875H25.3051ZM24.5442 24.4622V16.3969C24.5442 15.0812 24.0215 13.8193 23.0912 12.889C22.1608 11.9586 20.899 11.436 19.5833 11.436C18.2898 11.436 16.7833 12.2273 16.0528 13.4142V11.7251H11.8071V24.4622H16.0528V16.9599C16.0528 15.7882 16.9963 14.8295 18.1681 14.8295C18.7331 14.8295 19.275 15.0539 19.6745 15.4535C20.0741 15.853 20.2985 16.3949 20.2985 16.9599V24.4622H24.5442ZM6.86143 9.33595C7.53947 9.33595 8.18974 9.0666 8.66918 8.58715C9.14863 8.10771 9.41798 7.45744 9.41798 6.7794C9.41798 5.36417 8.27666 4.20764 6.86143 4.20764C6.17936 4.20764 5.52522 4.47859 5.04292 4.96089C4.56062 5.44319 4.28967 6.09733 4.28967 6.7794C4.28967 8.19463 5.4462 9.33595 6.86143 9.33595ZM8.97667 24.4622V11.7251H4.76141V24.4622H8.97667Z" fill="#00472B"/>
</svg>
