<svg width="20" height="20" viewBox="0 0 20 20" fill="none" xmlns="http://www.w3.org/2000/svg">
<path d="M9.04215 1.19361C9.32717 0.243319 10.6728 0.243319 10.9578 1.19361L12.4804 6.27006C12.6073 6.69308 12.9966 6.98278 13.4383 6.98278H18.5253C19.4746 6.98278 19.8897 8.18147 19.1438 8.76857L14.8942 12.1134C14.5714 12.3675 14.4368 12.793 14.5548 13.1865L16.145 18.4884C16.4256 19.424 15.3362 20.1656 14.5687 19.5615L10.6185 16.4524C10.2556 16.1668 9.74438 16.1668 9.38151 16.4524L5.43132 19.5615C4.66379 20.1656 3.57438 19.424 3.85499 18.4884L5.44518 13.1865C5.56318 12.793 5.42859 12.3675 5.10582 12.1134L0.856184 8.76857C0.110268 8.18147 0.525421 6.98278 1.47467 6.98278H6.56175C7.00338 6.98278 7.39272 6.69308 7.51959 6.27006L9.04215 1.19361Z" fill="#F700FF"/>
</svg>
