<svg width="332" height="264" viewBox="0 0 332 264" fill="none" xmlns="http://www.w3.org/2000/svg">
<path d="M66.0664 126.307V136.833H76.5923V126.307V115.781H66.0664V126.307Z" fill="white"/>
<path d="M76.5923 63.1562H66.0664V73.6822H76.5923V63.1562Z" fill="white"/>
<path d="M141.639 179.047H131.113V189.573H141.639V179.047Z" fill="white"/>
<path d="M76.5923 84.1978V94.7237H66.0664V105.251H76.5923V115.777H87.1182H97.6442V126.303H108.172V115.777H118.698V105.251V94.7237H108.172V105.251H97.6442H87.1182V94.7237V84.1978V73.6719H76.5923V84.1978Z" fill="white"/>
<path d="M97.647 63.1562H87.1211V73.6822H97.647H108.175V63.1562H97.647Z" fill="white"/>
<path d="M145.01 147.776H150.667V137.25H145.01H139.355V147.776H145.01Z" fill="white"/>
<path d="M118.698 73.6719H108.172V84.1978H118.698V73.6719Z" fill="white"/>
<path d="M192.379 115.781H181.854V126.307H192.379V115.781Z" fill="white"/>
<path d="M202.907 0H192.381V10.5259H202.907V0Z" fill="white"/>
<path d="M139.747 84.2028V73.6768H150.275V63.1509H139.747V52.625H129.221V63.1509H118.695V73.6768H129.221V84.2028V94.7287V105.256V115.782H139.747V105.256V94.7287H150.275V84.2028H139.747Z" fill="white"/>
<path d="M192.381 189.463H202.907V178.938H192.381H181.854V189.463H192.381Z" fill="white"/>
<path d="M181.856 0H171.33V10.5259H181.856V0Z" fill="white"/>
<path d="M179.226 84.2081V73.6822H168.7V63.1562H158.174V73.6822V84.2081H147.648V94.734H158.174H168.7V84.2081H179.226Z" fill="white"/>
<path d="M238.633 63.1562H228.107V73.6822H238.633V63.1562Z" fill="white"/>
<path d="M129.53 115.781H119.004V126.307H129.53V115.781Z" fill="white"/>
<path d="M171.329 52.621V42.0951H181.855V31.5675H192.383H202.909V21.0415H192.383V10.5156H181.855V21.0415H171.329V31.5675H160.803V42.0951H150.277V52.621H160.803H171.329Z" fill="white"/>
<path d="M171.329 126.317V115.792H181.855V105.266H171.329H160.803V115.792H150.277V126.317H160.803H171.329Z" fill="white"/>
<path d="M202.909 168.413V157.885H192.383H181.855V147.359H171.329V157.885H160.804V168.413H150.278H139.75V178.939H150.278H160.804H171.329V168.413H181.855V178.939H192.383V168.413H202.909Z" fill="white"/>
<path d="M160.802 10.5259V0H150.276H139.749V10.5259H129.223V21.0518H139.749H150.276V10.5259H160.802Z" fill="white"/>
<path d="M160.803 21.0625H150.277V31.5884H160.803V21.0625Z" fill="white"/>
<path d="M187.118 63.1612H176.592V73.6872V84.2131V94.739H187.118H197.644V84.2131H187.118V73.6872H197.644V63.1612H208.17V52.6353H197.644V42.1094H187.118V52.6353V63.1612Z" fill="white"/>
<path d="M150.276 31.5781H139.75V42.104H150.276V31.5781Z" fill="white"/>
<path d="M181.854 136.854V147.382H192.381H202.907V136.854H213.433H223.959V126.328H213.433H202.907H192.381V136.854H181.854Z" fill="white"/>
<path d="M238.633 94.7344H228.107V105.26H238.633V94.7344Z" fill="white"/>
<path d="M202.907 105.266H192.381V115.792H202.907V105.266Z" fill="white"/>
<path d="M229.223 73.6719H218.698H208.17V84.1978H218.698V94.7237H229.223V84.1978V73.6719Z" fill="white"/>
<path d="M223.961 105.266H213.436V115.792H223.961V105.266Z" fill="white"/>
<path d="M108.175 168.627H139.766V126.312H97.4498V136.85H87.1211V147.376H97.4498V157.902H87.1211V168.428H97.4498V168.625H97.647V178.954H87.1211V189.48V200.006H97.647V189.48H108.173V178.954L108.175 168.627ZM131.661 134.417V160.733H105.345V134.417H131.661Z" fill="white"/>
<path d="M245.013 126.307H255.538V115.781H245.013H234.485H223.959V126.307H234.485H245.013Z" fill="white"/>
<path d="M245.014 84.2081H255.54V73.6822V63.1562H245.014V73.6822V84.2081Z" fill="white"/>
<path d="M161.198 137.25H150.672V147.776V158.302H161.198V147.776V137.25Z" fill="white"/>
<path d="M266.067 126.328H255.541V136.854H266.067V126.328Z" fill="white"/>
<path d="M266.067 105.262V94.7344H255.541V105.262V115.788H266.067V105.262Z" fill="white"/>
<path d="M76.5923 178.938H66.0664V189.463V199.991H76.5923V189.463V178.938Z" fill="white"/>
<path d="M266.067 52.6313V0H213.436V52.6313H266.067ZM221.331 44.7356V7.89402H258.173V44.7356H221.331Z" fill="white"/>
<path d="M250.276 15.7969H229.225V36.8487H250.276V15.7969Z" fill="white"/>
<path d="M266.067 147.375H213.436V200.006H266.067V147.375ZM221.331 192.111V155.269H258.173V192.111H221.331Z" fill="white"/>
<path d="M250.276 163.156H229.225V184.21H250.276V163.156Z" fill="white"/>
<path d="M65.9336 0V52.6313H118.565V0H65.9336ZM110.671 7.89402V44.7356H73.8293V7.89402H110.671Z" fill="white"/>
<path d="M102.776 15.7969H81.7227V36.8487H102.776V15.7969Z" fill="white"/>
<path d="M7.90928 252.176C6.78928 252.176 5.78128 251.984 4.88528 251.6C3.98928 251.2 3.28528 250.64 2.77328 249.92C2.26128 249.2 2.00528 248.36 2.00528 247.4H4.93328C4.99728 248.12 5.27728 248.712 5.77328 249.176C6.28528 249.64 6.99728 249.872 7.90928 249.872C8.85328 249.872 9.58928 249.648 10.1173 249.2C10.6453 248.736 10.9093 248.144 10.9093 247.424C10.9093 246.864 10.7413 246.408 10.4053 246.056C10.0853 245.704 9.67728 245.432 9.18128 245.24C8.70128 245.048 8.02928 244.84 7.16528 244.616C6.07728 244.328 5.18928 244.04 4.50128 243.752C3.82928 243.448 3.25328 242.984 2.77328 242.36C2.29328 241.736 2.05328 240.904 2.05328 239.864C2.05328 238.904 2.29328 238.064 2.77328 237.344C3.25328 236.624 3.92528 236.072 4.78928 235.688C5.65328 235.304 6.65328 235.112 7.78928 235.112C9.40528 235.112 10.7253 235.52 11.7493 236.336C12.7893 237.136 13.3653 238.24 13.4773 239.648H10.4533C10.4053 239.04 10.1173 238.52 9.58928 238.088C9.06128 237.656 8.36528 237.44 7.50128 237.44C6.71728 237.44 6.07728 237.64 5.58128 238.04C5.08528 238.44 4.83728 239.016 4.83728 239.768C4.83728 240.28 4.98928 240.704 5.29328 241.04C5.61328 241.36 6.01328 241.616 6.49328 241.808C6.97328 242 7.62928 242.208 8.46128 242.432C9.56528 242.736 10.4613 243.04 11.1493 243.344C11.8533 243.648 12.4453 244.12 12.9253 244.76C13.4213 245.384 13.6693 246.224 13.6693 247.28C13.6693 248.128 13.4373 248.928 12.9733 249.68C12.5253 250.432 11.8613 251.04 10.9813 251.504C10.1173 251.952 9.09328 252.176 7.90928 252.176ZM15.9857 245.384C15.9857 244.024 16.2577 242.832 16.8017 241.808C17.3617 240.768 18.1297 239.968 19.1057 239.408C20.0817 238.848 21.2017 238.568 22.4657 238.568C24.0657 238.568 25.3857 238.952 26.4257 239.72C27.4817 240.472 28.1937 241.552 28.5617 242.96H25.6097C25.3697 242.304 24.9857 241.792 24.4577 241.424C23.9297 241.056 23.2657 240.872 22.4657 240.872C21.3457 240.872 20.4497 241.272 19.7777 242.072C19.1217 242.856 18.7937 243.96 18.7937 245.384C18.7937 246.808 19.1217 247.92 19.7777 248.72C20.4497 249.52 21.3457 249.92 22.4657 249.92C24.0497 249.92 25.0977 249.224 25.6097 247.832H28.5617C28.1777 249.176 27.4577 250.248 26.4017 251.048C25.3457 251.832 24.0337 252.224 22.4657 252.224C21.2017 252.224 20.0817 251.944 19.1057 251.384C18.1297 250.808 17.3617 250.008 16.8017 248.984C16.2577 247.944 15.9857 246.744 15.9857 245.384ZM30.3763 245.336C30.3763 244.008 30.6483 242.832 31.1923 241.808C31.7523 240.784 32.5043 239.992 33.4483 239.432C34.4083 238.856 35.4643 238.568 36.6163 238.568C37.6563 238.568 38.5603 238.776 39.3283 239.192C40.1123 239.592 40.7363 240.096 41.2003 240.704V238.784H43.9603V252.008H41.2003V250.04C40.7363 250.664 40.1043 251.184 39.3043 251.6C38.5043 252.016 37.5923 252.224 36.5683 252.224C35.4323 252.224 34.3923 251.936 33.4483 251.36C32.5043 250.768 31.7523 249.952 31.1923 248.912C30.6483 247.856 30.3763 246.664 30.3763 245.336ZM41.2003 245.384C41.2003 244.472 41.0083 243.68 40.6243 243.008C40.2563 242.336 39.7683 241.824 39.1603 241.472C38.5523 241.12 37.8963 240.944 37.1923 240.944C36.4883 240.944 35.8323 241.12 35.2243 241.472C34.6163 241.808 34.1203 242.312 33.7363 242.984C33.3683 243.64 33.1843 244.424 33.1843 245.336C33.1843 246.248 33.3683 247.048 33.7363 247.736C34.1203 248.424 34.6163 248.952 35.2243 249.32C35.8483 249.672 36.5043 249.848 37.1923 249.848C37.8963 249.848 38.5523 249.672 39.1603 249.32C39.7683 248.968 40.2563 248.456 40.6243 247.784C41.0083 247.096 41.2003 246.296 41.2003 245.384ZM54.2259 238.568C55.2659 238.568 56.1939 238.784 57.0099 239.216C57.8419 239.648 58.4899 240.288 58.9539 241.136C59.4179 241.984 59.6499 243.008 59.6499 244.208V252.008H56.9379V244.616C56.9379 243.432 56.6419 242.528 56.0499 241.904C55.4579 241.264 54.6499 240.944 53.6259 240.944C52.6019 240.944 51.7859 241.264 51.1779 241.904C50.5859 242.528 50.2899 243.432 50.2899 244.616V252.008H47.5539V238.784H50.2899V240.296C50.7379 239.752 51.3059 239.328 51.9939 239.024C52.6979 238.72 53.4419 238.568 54.2259 238.568ZM82.2862 255.032L79.3582 251.864C78.6382 252.072 77.8462 252.176 76.9822 252.176C75.4302 252.176 73.9982 251.816 72.6862 251.096C71.3902 250.36 70.3582 249.344 69.5902 248.048C68.8382 246.736 68.4622 245.264 68.4622 243.632C68.4622 242 68.8382 240.536 69.5902 239.24C70.3582 237.944 71.3902 236.936 72.6862 236.216C73.9982 235.48 75.4302 235.112 76.9822 235.112C78.5502 235.112 79.9822 235.48 81.2782 236.216C82.5902 236.936 83.6222 237.944 84.3742 239.24C85.1262 240.536 85.5022 242 85.5022 243.632C85.5022 245.168 85.1662 246.56 84.4942 247.808C83.8382 249.04 82.9262 250.032 81.7582 250.784L85.7662 255.032H82.2862ZM71.2702 243.632C71.2702 244.864 71.5102 245.952 71.9902 246.896C72.4862 247.824 73.1662 248.544 74.0302 249.056C74.8942 249.552 75.8782 249.8 76.9822 249.8C78.0862 249.8 79.0702 249.552 79.9342 249.056C80.7982 248.544 81.4702 247.824 81.9502 246.896C82.4462 245.952 82.6942 244.864 82.6942 243.632C82.6942 242.4 82.4462 241.32 81.9502 240.392C81.4702 239.464 80.7982 238.752 79.9342 238.256C79.0702 237.76 78.0862 237.512 76.9822 237.512C75.8782 237.512 74.8942 237.76 74.0302 238.256C73.1662 238.752 72.4862 239.464 71.9902 240.392C71.5102 241.32 71.2702 242.4 71.2702 243.632ZM96.9288 252.008L93.0888 245.336H91.0008V252.008H88.2648V235.328H94.0248C95.3048 235.328 96.3848 235.552 97.2648 236C98.1608 236.448 98.8248 237.048 99.2568 237.8C99.7048 238.552 99.9288 239.392 99.9288 240.32C99.9288 241.408 99.6088 242.4 98.9688 243.296C98.3448 244.176 97.3768 244.776 96.0648 245.096L100.193 252.008H96.9288ZM91.0008 243.152H94.0248C95.0488 243.152 95.8168 242.896 96.3288 242.384C96.8568 241.872 97.1208 241.184 97.1208 240.32C97.1208 239.456 96.8648 238.784 96.3528 238.304C95.8408 237.808 95.0648 237.56 94.0248 237.56H91.0008V243.152ZM108.751 243.632C108.751 242 109.127 240.536 109.879 239.24C110.647 237.944 111.679 236.936 112.975 236.216C114.287 235.48 115.719 235.112 117.271 235.112C119.047 235.112 120.623 235.552 121.999 236.432C123.391 237.296 124.399 238.528 125.023 240.128H121.735C121.303 239.248 120.703 238.592 119.935 238.16C119.167 237.728 118.279 237.512 117.271 237.512C116.167 237.512 115.183 237.76 114.319 238.256C113.455 238.752 112.775 239.464 112.279 240.392C111.799 241.32 111.559 242.4 111.559 243.632C111.559 244.864 111.799 245.944 112.279 246.872C112.775 247.8 113.455 248.52 114.319 249.032C115.183 249.528 116.167 249.776 117.271 249.776C118.279 249.776 119.167 249.56 119.935 249.128C120.703 248.696 121.303 248.04 121.735 247.16H125.023C124.399 248.76 123.391 249.992 121.999 250.856C120.623 251.72 119.047 252.152 117.271 252.152C115.703 252.152 114.271 251.792 112.975 251.072C111.679 250.336 110.647 249.32 109.879 248.024C109.127 246.728 108.751 245.264 108.751 243.632ZM133.962 252.224C132.714 252.224 131.586 251.944 130.578 251.384C129.57 250.808 128.778 250.008 128.202 248.984C127.626 247.944 127.338 246.744 127.338 245.384C127.338 244.04 127.634 242.848 128.226 241.808C128.818 240.768 129.626 239.968 130.65 239.408C131.674 238.848 132.818 238.568 134.082 238.568C135.346 238.568 136.49 238.848 137.514 239.408C138.538 239.968 139.346 240.768 139.938 241.808C140.53 242.848 140.826 244.04 140.826 245.384C140.826 246.728 140.522 247.92 139.914 248.96C139.306 250 138.474 250.808 137.418 251.384C136.378 251.944 135.226 252.224 133.962 252.224ZM133.962 249.848C134.666 249.848 135.322 249.68 135.93 249.344C136.554 249.008 137.058 248.504 137.442 247.832C137.826 247.16 138.018 246.344 138.018 245.384C138.018 244.424 137.834 243.616 137.466 242.96C137.098 242.288 136.61 241.784 136.002 241.448C135.394 241.112 134.738 240.944 134.034 240.944C133.33 240.944 132.674 241.112 132.066 241.448C131.474 241.784 131.002 242.288 130.65 242.96C130.298 243.616 130.122 244.424 130.122 245.384C130.122 246.808 130.482 247.912 131.202 248.696C131.938 249.464 132.858 249.848 133.962 249.848ZM142.618 245.336C142.618 244.008 142.89 242.832 143.434 241.808C143.994 240.784 144.746 239.992 145.69 239.432C146.65 238.856 147.714 238.568 148.882 238.568C149.746 238.568 150.594 238.76 151.426 239.144C152.274 239.512 152.946 240.008 153.442 240.632V234.248H156.202V252.008H153.442V250.016C152.994 250.656 152.37 251.184 151.57 251.6C150.786 252.016 149.882 252.224 148.858 252.224C147.706 252.224 146.65 251.936 145.69 251.36C144.746 250.768 143.994 249.952 143.434 248.912C142.89 247.856 142.618 246.664 142.618 245.336ZM153.442 245.384C153.442 244.472 153.25 243.68 152.866 243.008C152.498 242.336 152.01 241.824 151.402 241.472C150.794 241.12 150.138 240.944 149.434 240.944C148.73 240.944 148.074 241.12 147.466 241.472C146.858 241.808 146.362 242.312 145.978 242.984C145.61 243.64 145.426 244.424 145.426 245.336C145.426 246.248 145.61 247.048 145.978 247.736C146.362 248.424 146.858 248.952 147.466 249.32C148.09 249.672 148.746 249.848 149.434 249.848C150.138 249.848 150.794 249.672 151.402 249.32C152.01 248.968 152.498 248.456 152.866 247.784C153.25 247.096 153.442 246.296 153.442 245.384ZM171.916 245.072C171.916 245.568 171.884 246.016 171.82 246.416H161.716C161.796 247.472 162.188 248.32 162.892 248.96C163.596 249.6 164.46 249.92 165.484 249.92C166.956 249.92 167.996 249.304 168.604 248.072H171.556C171.156 249.288 170.428 250.288 169.372 251.072C168.332 251.84 167.036 252.224 165.484 252.224C164.22 252.224 163.084 251.944 162.076 251.384C161.084 250.808 160.3 250.008 159.724 248.984C159.164 247.944 158.884 246.744 158.884 245.384C158.884 244.024 159.156 242.832 159.7 241.808C160.26 240.768 161.036 239.968 162.028 239.408C163.036 238.848 164.188 238.568 165.484 238.568C166.732 238.568 167.844 238.84 168.82 239.384C169.796 239.928 170.556 240.696 171.1 241.688C171.644 242.664 171.916 243.792 171.916 245.072ZM169.06 244.208C169.044 243.2 168.684 242.392 167.98 241.784C167.276 241.176 166.404 240.872 165.364 240.872C164.42 240.872 163.612 241.176 162.94 241.784C162.268 242.376 161.868 243.184 161.74 244.208H169.06ZM184.035 241.016V248.336C184.035 248.832 184.147 249.192 184.371 249.416C184.611 249.624 185.011 249.728 185.571 249.728H187.251V252.008H185.091C183.859 252.008 182.915 251.72 182.259 251.144C181.603 250.568 181.275 249.632 181.275 248.336V241.016H179.715V238.784H181.275V235.496H184.035V238.784H187.251V241.016H184.035ZM195.509 252.224C194.261 252.224 193.133 251.944 192.125 251.384C191.117 250.808 190.325 250.008 189.749 248.984C189.173 247.944 188.885 246.744 188.885 245.384C188.885 244.04 189.181 242.848 189.773 241.808C190.365 240.768 191.173 239.968 192.197 239.408C193.221 238.848 194.365 238.568 195.629 238.568C196.893 238.568 198.037 238.848 199.061 239.408C200.085 239.968 200.893 240.768 201.485 241.808C202.077 242.848 202.373 244.04 202.373 245.384C202.373 246.728 202.069 247.92 201.461 248.96C200.853 250 200.021 250.808 198.965 251.384C197.925 251.944 196.773 252.224 195.509 252.224ZM195.509 249.848C196.213 249.848 196.869 249.68 197.477 249.344C198.101 249.008 198.605 248.504 198.989 247.832C199.373 247.16 199.565 246.344 199.565 245.384C199.565 244.424 199.381 243.616 199.013 242.96C198.645 242.288 198.157 241.784 197.549 241.448C196.941 241.112 196.285 240.944 195.581 240.944C194.877 240.944 194.221 241.112 193.613 241.448C193.021 241.784 192.549 242.288 192.197 242.96C191.845 243.616 191.669 244.424 191.669 245.384C191.669 246.808 192.029 247.912 192.749 248.696C193.485 249.464 194.405 249.848 195.509 249.848ZM216.76 235.328C218.536 235.328 220.088 235.672 221.416 236.36C222.76 237.032 223.792 238.008 224.512 239.288C225.248 240.552 225.616 242.032 225.616 243.728C225.616 245.424 225.248 246.896 224.512 248.144C223.792 249.392 222.76 250.352 221.416 251.024C220.088 251.68 218.536 252.008 216.76 252.008H211.312V235.328H216.76ZM216.76 249.776C218.712 249.776 220.208 249.248 221.248 248.192C222.288 247.136 222.808 245.648 222.808 243.728C222.808 241.792 222.288 240.28 221.248 239.192C220.208 238.104 218.712 237.56 216.76 237.56H214.048V249.776H216.76ZM234.063 252.224C232.815 252.224 231.687 251.944 230.679 251.384C229.671 250.808 228.879 250.008 228.303 248.984C227.727 247.944 227.439 246.744 227.439 245.384C227.439 244.04 227.735 242.848 228.327 241.808C228.919 240.768 229.727 239.968 230.751 239.408C231.775 238.848 232.919 238.568 234.183 238.568C235.447 238.568 236.591 238.848 237.615 239.408C238.639 239.968 239.447 240.768 240.039 241.808C240.631 242.848 240.927 244.04 240.927 245.384C240.927 246.728 240.623 247.92 240.015 248.96C239.407 250 238.575 250.808 237.519 251.384C236.479 251.944 235.327 252.224 234.063 252.224ZM234.063 249.848C234.767 249.848 235.423 249.68 236.031 249.344C236.655 249.008 237.159 248.504 237.543 247.832C237.927 247.16 238.119 246.344 238.119 245.384C238.119 244.424 237.935 243.616 237.567 242.96C237.199 242.288 236.711 241.784 236.103 241.448C235.495 241.112 234.839 240.944 234.135 240.944C233.431 240.944 232.775 241.112 232.167 241.448C231.575 241.784 231.103 242.288 230.751 242.96C230.399 243.616 230.223 244.424 230.223 245.384C230.223 246.808 230.583 247.912 231.303 248.696C232.039 249.464 232.959 249.848 234.063 249.848ZM261.392 238.784L257.288 252.008H254.408L251.744 242.24L249.08 252.008H246.2L242.072 238.784H244.856L247.616 249.416L250.424 238.784H253.28L255.968 249.368L258.704 238.784H261.392ZM270.109 238.568C271.149 238.568 272.077 238.784 272.893 239.216C273.725 239.648 274.373 240.288 274.837 241.136C275.301 241.984 275.533 243.008 275.533 244.208V252.008H272.821V244.616C272.821 243.432 272.525 242.528 271.933 241.904C271.341 241.264 270.533 240.944 269.509 240.944C268.485 240.944 267.669 241.264 267.061 241.904C266.469 242.528 266.173 243.432 266.173 244.616V252.008H263.437V238.784H266.173V240.296C266.621 239.752 267.189 239.328 267.877 239.024C268.581 238.72 269.325 238.568 270.109 238.568ZM281.759 234.248V252.008H279.023V234.248H281.759ZM291.087 252.224C289.839 252.224 288.711 251.944 287.703 251.384C286.695 250.808 285.903 250.008 285.327 248.984C284.751 247.944 284.463 246.744 284.463 245.384C284.463 244.04 284.759 242.848 285.351 241.808C285.943 240.768 286.751 239.968 287.775 239.408C288.799 238.848 289.943 238.568 291.207 238.568C292.471 238.568 293.615 238.848 294.639 239.408C295.663 239.968 296.471 240.768 297.063 241.808C297.655 242.848 297.951 244.04 297.951 245.384C297.951 246.728 297.647 247.92 297.039 248.96C296.431 250 295.599 250.808 294.543 251.384C293.503 251.944 292.351 252.224 291.087 252.224ZM291.087 249.848C291.791 249.848 292.447 249.68 293.055 249.344C293.679 249.008 294.183 248.504 294.567 247.832C294.951 247.16 295.143 246.344 295.143 245.384C295.143 244.424 294.959 243.616 294.591 242.96C294.223 242.288 293.735 241.784 293.127 241.448C292.519 241.112 291.863 240.944 291.159 240.944C290.455 240.944 289.799 241.112 289.191 241.448C288.599 241.784 288.127 242.288 287.775 242.96C287.423 243.616 287.247 244.424 287.247 245.384C287.247 246.808 287.607 247.912 288.327 248.696C289.063 249.464 289.983 249.848 291.087 249.848ZM299.743 245.336C299.743 244.008 300.015 242.832 300.559 241.808C301.119 240.784 301.871 239.992 302.815 239.432C303.775 238.856 304.831 238.568 305.983 238.568C307.023 238.568 307.927 238.776 308.695 239.192C309.479 239.592 310.103 240.096 310.567 240.704V238.784H313.327V252.008H310.567V250.04C310.103 250.664 309.471 251.184 308.671 251.6C307.871 252.016 306.959 252.224 305.935 252.224C304.799 252.224 303.759 251.936 302.815 251.36C301.871 250.768 301.119 249.952 300.559 248.912C300.015 247.856 299.743 246.664 299.743 245.336ZM310.567 245.384C310.567 244.472 310.375 243.68 309.991 243.008C309.623 242.336 309.135 241.824 308.527 241.472C307.919 241.12 307.263 240.944 306.559 240.944C305.855 240.944 305.199 241.12 304.591 241.472C303.983 241.808 303.487 242.312 303.103 242.984C302.735 243.64 302.551 244.424 302.551 245.336C302.551 246.248 302.735 247.048 303.103 247.736C303.487 248.424 303.983 248.952 304.591 249.32C305.215 249.672 305.871 249.848 306.559 249.848C307.263 249.848 307.919 249.672 308.527 249.32C309.135 248.968 309.623 248.456 309.991 247.784C310.375 247.096 310.567 246.296 310.567 245.384ZM316.009 245.336C316.009 244.008 316.281 242.832 316.825 241.808C317.385 240.784 318.137 239.992 319.081 239.432C320.041 238.856 321.105 238.568 322.273 238.568C323.137 238.568 323.985 238.76 324.817 239.144C325.665 239.512 326.337 240.008 326.833 240.632V234.248H329.593V252.008H326.833V250.016C326.385 250.656 325.761 251.184 324.961 251.6C324.177 252.016 323.273 252.224 322.249 252.224C321.097 252.224 320.041 251.936 319.081 251.36C318.137 250.768 317.385 249.952 316.825 248.912C316.281 247.856 316.009 246.664 316.009 245.336ZM326.833 245.384C326.833 244.472 326.641 243.68 326.257 243.008C325.889 242.336 325.401 241.824 324.793 241.472C324.185 241.12 323.529 240.944 322.825 240.944C322.121 240.944 321.465 241.12 320.857 241.472C320.249 241.808 319.753 242.312 319.369 242.984C319.001 243.64 318.817 244.424 318.817 245.336C318.817 246.248 319.001 247.048 319.369 247.736C319.753 248.424 320.249 248.952 320.857 249.32C321.481 249.672 322.137 249.848 322.825 249.848C323.529 249.848 324.185 249.672 324.793 249.32C325.401 248.968 325.889 248.456 326.257 247.784C326.641 247.096 326.833 246.296 326.833 245.384Z" fill="white"/>
</svg>
