<svg width="24" height="24" viewBox="0 0 24 24" fill="none" xmlns="http://www.w3.org/2000/svg">
<g clip-path="url(#clip0_6770_4065)">
<path fill-rule="evenodd" clip-rule="evenodd" d="M10.1486 3.33705C8.13899 3.33705 6.21171 4.13536 4.79072 5.55635C3.36973 6.97734 2.57143 8.90461 2.57143 10.9142V12.0011C2.57143 14.2989 3.48424 16.5026 5.10906 18.1274C6.73387 19.7522 8.93759 20.6651 11.2354 20.6651H12C13.2382 20.6651 14.4642 20.4212 15.6082 19.9473C16.7521 19.4735 17.7915 18.779 18.667 17.9035C19.5425 17.028 20.237 15.9886 20.7109 14.8446C21.1847 13.7007 21.4286 12.4747 21.4286 11.2365V10.4702C21.4286 10.1292 21.564 9.80218 21.8051 9.56106C22.0463 9.31994 22.3733 9.18448 22.7143 9.18448C23.0553 9.18448 23.3823 9.31994 23.6234 9.56106C23.8645 9.80218 24 10.1292 24 10.4702V11.2365C24 14.4191 22.7357 17.4713 20.4853 19.7218C18.2348 21.9722 15.1826 23.2365 12 23.2365H11.2354C8.25561 23.2365 5.39783 22.0528 3.29078 19.9457C1.18373 17.8386 0 14.9809 0 12.0011L0 10.9142C0 8.22263 1.06922 5.6413 2.97245 3.73807C4.87567 1.83485 7.457 0.765625 10.1486 0.765625C11.3648 0.765625 12.5691 1.00529 13.6927 1.47094C14.8163 1.93658 15.8371 2.61907 16.6968 3.4794C17.5565 4.33973 18.2382 5.36104 18.703 6.48496C19.1678 7.60888 19.4066 8.81338 19.4057 10.0296V10.7668C19.4057 12.8564 18.5756 14.8604 17.0981 16.338C15.6205 17.8155 13.6165 18.6456 11.5269 18.6456H11.2337C10.3614 18.6454 9.4976 18.4734 8.69173 18.1393C7.88587 17.8053 7.15369 17.3158 6.53701 16.6988C5.92032 16.0818 5.4312 15.3493 5.09757 14.5433C4.76395 13.7373 4.59235 12.8734 4.59257 12.0011V11.2365C4.59303 9.6779 5.21225 8.18326 6.31418 7.08101C7.4161 5.97877 8.91056 5.35911 10.4691 5.3582C12.8691 5.3582 14.8166 7.30391 14.8166 9.70562V10.1428C14.8166 11.1794 14.4048 12.1735 13.6718 12.9065C12.9388 13.6395 11.9446 14.0513 10.908 14.0513H10.4691C10.1281 14.0513 9.80112 13.9159 9.56001 13.6748C9.31889 13.4336 9.18343 13.1066 9.18343 12.7656C9.18343 12.4246 9.31889 12.0976 9.56001 11.8565C9.80112 11.6154 10.1281 11.4799 10.4691 11.4799H10.9063C11.0819 11.4799 11.2558 11.4453 11.418 11.3781C11.5802 11.3109 11.7276 11.2124 11.8518 11.0883C11.976 10.9641 12.0744 10.8167 12.1416 10.6545C12.2088 10.4922 12.2434 10.3184 12.2434 10.1428V9.70391C12.2434 8.72334 11.4497 7.92791 10.4691 7.92791C9.59255 7.92927 8.75232 8.27846 8.13295 8.89878C7.51359 9.51911 7.16571 10.3599 7.16571 11.2365V12.0011C7.16571 13.0809 7.59467 14.1164 8.35821 14.88C9.12175 15.6435 10.1573 16.0725 11.2371 16.0725H11.5303C12.9379 16.0725 14.2879 15.5133 15.2832 14.518C16.2785 13.5226 16.8377 12.1727 16.8377 10.7651V10.0279C16.8384 9.14921 16.6658 8.27899 16.3299 7.46703C15.994 6.65506 15.5014 5.91727 14.8801 5.29586C14.2589 4.67444 13.5212 4.18159 12.7093 3.84548C11.8974 3.50937 11.0273 3.3366 10.1486 3.33705Z" fill="#3BC672"/>
</g>
<defs>
<clipPath id="clip0_6770_4065">
<rect width="24" height="24" fill="white"/>
</clipPath>
</defs>
</svg>
