<svg width="24" height="24" viewBox="0 0 24 24" fill="none" xmlns="http://www.w3.org/2000/svg">
<path d="M4.96004 3.54504L9.61504 8.19904C10.3302 7.75032 11.1573 7.51229 12.0015 7.51229C12.8458 7.51229 13.6729 7.75032 14.388 8.19904L19.04 3.54704C17.0636 1.90123 14.573 1 12.001 1C9.4291 1 6.93846 1.90123 4.96204 3.54704M20.454 4.95904L15.8 9.61404C16.2486 10.329 16.4865 11.156 16.4865 12C16.4865 12.8441 16.2486 13.671 15.8 14.386L20.453 19.039C22.0989 17.0626 23.0001 14.572 23.0001 12C23.0001 9.4281 22.0989 6.93746 20.453 4.96104M19.04 20.453L14.387 15.799C13.6719 16.2478 12.8448 16.4858 12.0005 16.4858C11.1563 16.4858 10.3292 16.2478 9.61404 15.799L4.96004 20.454C6.93653 22.1001 9.42737 23.0015 11.9995 23.0015C14.5717 23.0015 17.0626 22.1001 19.039 20.454M3.54704 19.039L8.20004 14.384C7.75152 13.669 7.51361 12.8421 7.51361 11.998C7.51361 11.154 7.75152 10.327 8.20004 9.61204L3.54704 4.95904C1.90123 6.93546 1 9.4261 1 11.998C1 14.57 1.90123 17.0606 3.54704 19.037" fill="#0BA1A1"/>
</svg>
