<svg width="28" height="29" viewBox="0 0 28 29" fill="none" xmlns="http://www.w3.org/2000/svg">
<path d="M19.2507 7.51538C18.4707 6.62462 18.0408 5.48087 18.0409 4.29688H14.5142V18.4492C14.4876 19.2152 14.1644 19.941 13.6129 20.4733C13.0614 21.0056 12.3247 21.3029 11.5582 21.3025C9.93756 21.3025 8.59081 19.9785 8.59081 18.335C8.59081 16.372 10.4854 14.8997 12.437 15.5046V11.898C8.49951 11.373 5.05273 14.4318 5.05273 18.335C5.05273 22.1356 8.20276 24.8405 11.5468 24.8405C15.1305 24.8405 18.0409 21.9302 18.0409 18.335V11.1562C19.471 12.1832 21.1879 12.7342 22.9486 12.7312V9.20453C22.9486 9.20453 20.8029 9.30725 19.2507 7.51538Z" fill="#00472B"/>
</svg>
