<svg width="96" height="49" viewBox="0 0 96 49" fill="none" xmlns="http://www.w3.org/2000/svg">
<path d="M1.34009 31.3023C0.340329 26.3625 8.34009 26.2422 3.84009 20.8023C-0.659914 15.3625 0.840086 9.74219 3.84009 9.30233C6.84009 8.86248 10.3401 11.3023 13.8401 9.30233C17.3401 7.30233 8.84009 1.86248 13.8401 1.30233C18.8401 0.742188 24.8401 8.24219 28.3401 6.80233C31.8401 5.36248 33.3401 1.30233 36.8401 3.30233C40.3401 5.30233 41.3401 10.7801 44.8401 9.30233C48.3401 7.82461 48.8401 -0.697666 53.3401 1.30233C57.8401 3.30233 56.3401 11.8023 61.3401 11.3023C66.3401 10.8023 62.3401 3.30233 66.3401 3.30233C70.3401 3.30233 75.3401 13.8023 77.8401 13.8023C80.3401 13.8023 85.3401 7.30233 87.8401 6.80233C90.3401 6.30233 90.3401 13.8023 89.3401 15.8023C88.3401 17.8023 95.8401 24.8023 95.3401 26.8023C94.8401 28.8023 89.3401 27.3023 87.8401 28.8023C86.3401 30.3023 89.8401 36.8023 85.3401 37.8023C80.8401 38.8023 75.8401 35.8023 72.8401 35.3023C69.8401 34.8023 73.3401 40.3023 68.8401 41.3023C64.3401 42.3023 57.7056 33.9804 55.3401 37.8023C50.1897 45.114 46.933 50.6557 44.8401 45.8023C41.3638 38.2543 39.5521 35.5973 36.8401 37.8023C28.2237 43.2432 23.2629 46.67 18.3401 41.3023C17.1253 37.6421 8.83984 41.3023 11.3401 35.3023C13.8403 29.3023 2.33984 36.2422 1.34009 31.3023Z" stroke="#00472B"/>
</svg>
